<?xml version="1.0" encoding="utf-8" standalone="no"?>
<!DOCTYPE svg PUBLIC "-//W3C//DTD SVG 1.1//EN"
  "http://www.w3.org/Graphics/SVG/1.1/DTD/svg11.dtd">
<!-- Created with matplotlib (https://matplotlib.org/) -->
<svg height="360pt" version="1.1" viewBox="0 0 720 360" width="720pt" xmlns="http://www.w3.org/2000/svg" xmlns:xlink="http://www.w3.org/1999/xlink">
 <metadata>
  <rdf:RDF xmlns:cc="http://creativecommons.org/ns#" xmlns:dc="http://purl.org/dc/elements/1.1/" xmlns:rdf="http://www.w3.org/1999/02/22-rdf-syntax-ns#">
   <cc:Work>
    <dc:type rdf:resource="http://purl.org/dc/dcmitype/StillImage"/>
    <dc:date>2020-12-08T20:52:22.376755</dc:date>
    <dc:format>image/svg+xml</dc:format>
    <dc:creator>
     <cc:Agent>
      <dc:title>Matplotlib v3.3.3, https://matplotlib.org/</dc:title>
     </cc:Agent>
    </dc:creator>
   </cc:Work>
  </rdf:RDF>
 </metadata>
 <defs>
  <style type="text/css">*{stroke-linecap:butt;stroke-linejoin:round;}</style>
 </defs>
 <g id="figure_1">
  <g id="patch_1">
   <path d="M 0 360 
L 720 360 
L 720 0 
L 0 0 
z
" style="fill:#191919;"/>
  </g>
  <g id="axes_1">
   <g id="patch_2">
    <path d="M 90 315 
L 648 315 
L 648 43.2 
L 90 43.2 
z
" style="fill:#eaeaf2;"/>
   </g>
   <g id="matplotlib.axis_1">
    <g id="xtick_1">
     <g id="line2d_1">
      <path clip-path="url(#p793b1ce303)" d="M 112.430852 315 
L 112.430852 43.2 
" style="fill:none;stroke:#ffffff;stroke-linecap:round;"/>
     </g>
     <g id="text_1">
      <!-- $\mathdefault{10^{0}}$ -->
      <g style="fill:#ffffff;" transform="translate(102.750852 332.858281)scale(0.11 -0.11)">
       <defs>
        <path d="M 12.40625 8.296875 
L 28.515625 8.296875 
L 28.515625 63.921875 
L 10.984375 60.40625 
L 10.984375 69.390625 
L 28.421875 72.90625 
L 38.28125 72.90625 
L 38.28125 8.296875 
L 54.390625 8.296875 
L 54.390625 0 
L 12.40625 0 
z
" id="DejaVuSans-49"/>
        <path d="M 31.78125 66.40625 
Q 24.171875 66.40625 20.328125 58.90625 
Q 16.5 51.421875 16.5 36.375 
Q 16.5 21.390625 20.328125 13.890625 
Q 24.171875 6.390625 31.78125 6.390625 
Q 39.453125 6.390625 43.28125 13.890625 
Q 47.125 21.390625 47.125 36.375 
Q 47.125 51.421875 43.28125 58.90625 
Q 39.453125 66.40625 31.78125 66.40625 
z
M 31.78125 74.21875 
Q 44.046875 74.21875 50.515625 64.515625 
Q 56.984375 54.828125 56.984375 36.375 
Q 56.984375 17.96875 50.515625 8.265625 
Q 44.046875 -1.421875 31.78125 -1.421875 
Q 19.53125 -1.421875 13.0625 8.265625 
Q 6.59375 17.96875 6.59375 36.375 
Q 6.59375 54.828125 13.0625 64.515625 
Q 19.53125 74.21875 31.78125 74.21875 
z
" id="DejaVuSans-48"/>
       </defs>
       <use transform="translate(0 0.765625)" xlink:href="#DejaVuSans-49"/>
       <use transform="translate(63.623047 0.765625)" xlink:href="#DejaVuSans-48"/>
       <use transform="translate(128.203125 39.046875)scale(0.7)" xlink:href="#DejaVuSans-48"/>
      </g>
     </g>
    </g>
    <g id="xtick_2">
     <g id="line2d_2">
      <path clip-path="url(#p793b1ce303)" d="M 343.891475 315 
L 343.891475 43.2 
" style="fill:none;stroke:#ffffff;stroke-linecap:round;"/>
     </g>
     <g id="text_2">
      <!-- $\mathdefault{10^{1}}$ -->
      <g style="fill:#ffffff;" transform="translate(334.211475 332.858281)scale(0.11 -0.11)">
       <use transform="translate(0 0.684375)" xlink:href="#DejaVuSans-49"/>
       <use transform="translate(63.623047 0.684375)" xlink:href="#DejaVuSans-48"/>
       <use transform="translate(128.203125 38.965625)scale(0.7)" xlink:href="#DejaVuSans-49"/>
      </g>
     </g>
    </g>
    <g id="xtick_3">
     <g id="line2d_3">
      <path clip-path="url(#p793b1ce303)" d="M 575.352098 315 
L 575.352098 43.2 
" style="fill:none;stroke:#ffffff;stroke-linecap:round;"/>
     </g>
     <g id="text_3">
      <!-- $\mathdefault{10^{2}}$ -->
      <g style="fill:#ffffff;" transform="translate(565.672098 332.858281)scale(0.11 -0.11)">
       <defs>
        <path d="M 19.1875 8.296875 
L 53.609375 8.296875 
L 53.609375 0 
L 7.328125 0 
L 7.328125 8.296875 
Q 12.9375 14.109375 22.625 23.890625 
Q 32.328125 33.6875 34.8125 36.53125 
Q 39.546875 41.84375 41.421875 45.53125 
Q 43.3125 49.21875 43.3125 52.78125 
Q 43.3125 58.59375 39.234375 62.25 
Q 35.15625 65.921875 28.609375 65.921875 
Q 23.96875 65.921875 18.8125 64.3125 
Q 13.671875 62.703125 7.8125 59.421875 
L 7.8125 69.390625 
Q 13.765625 71.78125 18.9375 73 
Q 24.125 74.21875 28.421875 74.21875 
Q 39.75 74.21875 46.484375 68.546875 
Q 53.21875 62.890625 53.21875 53.421875 
Q 53.21875 48.921875 51.53125 44.890625 
Q 49.859375 40.875 45.40625 35.40625 
Q 44.1875 33.984375 37.640625 27.21875 
Q 31.109375 20.453125 19.1875 8.296875 
z
" id="DejaVuSans-50"/>
       </defs>
       <use transform="translate(0 0.765625)" xlink:href="#DejaVuSans-49"/>
       <use transform="translate(63.623047 0.765625)" xlink:href="#DejaVuSans-48"/>
       <use transform="translate(128.203125 39.046875)scale(0.7)" xlink:href="#DejaVuSans-50"/>
      </g>
     </g>
    </g>
    <g id="xtick_4"/>
    <g id="xtick_5"/>
    <g id="xtick_6"/>
    <g id="xtick_7"/>
    <g id="xtick_8"/>
    <g id="xtick_9"/>
    <g id="xtick_10"/>
    <g id="xtick_11"/>
    <g id="xtick_12"/>
    <g id="xtick_13"/>
    <g id="xtick_14"/>
    <g id="xtick_15"/>
    <g id="xtick_16"/>
    <g id="xtick_17"/>
    <g id="xtick_18"/>
    <g id="xtick_19"/>
    <g id="xtick_20"/>
    <g id="xtick_21"/>
    <g id="xtick_22"/>
    <g id="text_4">
     <!-- Degree -->
     <g style="fill:#ffffff;" transform="translate(347.16375 348.264063)scale(0.12 -0.12)">
      <defs>
       <path d="M 19.671875 64.796875 
L 19.671875 8.109375 
L 31.59375 8.109375 
Q 46.6875 8.109375 53.6875 14.9375 
Q 60.6875 21.78125 60.6875 36.53125 
Q 60.6875 51.171875 53.6875 57.984375 
Q 46.6875 64.796875 31.59375 64.796875 
z
M 9.8125 72.90625 
L 30.078125 72.90625 
Q 51.265625 72.90625 61.171875 64.09375 
Q 71.09375 55.28125 71.09375 36.53125 
Q 71.09375 17.671875 61.125 8.828125 
Q 51.171875 0 30.078125 0 
L 9.8125 0 
z
" id="DejaVuSans-68"/>
       <path d="M 56.203125 29.59375 
L 56.203125 25.203125 
L 14.890625 25.203125 
Q 15.484375 15.921875 20.484375 11.0625 
Q 25.484375 6.203125 34.421875 6.203125 
Q 39.59375 6.203125 44.453125 7.46875 
Q 49.3125 8.734375 54.109375 11.28125 
L 54.109375 2.78125 
Q 49.265625 0.734375 44.1875 -0.34375 
Q 39.109375 -1.421875 33.890625 -1.421875 
Q 20.796875 -1.421875 13.15625 6.1875 
Q 5.515625 13.8125 5.515625 26.8125 
Q 5.515625 40.234375 12.765625 48.109375 
Q 20.015625 56 32.328125 56 
Q 43.359375 56 49.78125 48.890625 
Q 56.203125 41.796875 56.203125 29.59375 
z
M 47.21875 32.234375 
Q 47.125 39.59375 43.09375 43.984375 
Q 39.0625 48.390625 32.421875 48.390625 
Q 24.90625 48.390625 20.390625 44.140625 
Q 15.875 39.890625 15.1875 32.171875 
z
" id="DejaVuSans-101"/>
       <path d="M 45.40625 27.984375 
Q 45.40625 37.75 41.375 43.109375 
Q 37.359375 48.484375 30.078125 48.484375 
Q 22.859375 48.484375 18.828125 43.109375 
Q 14.796875 37.75 14.796875 27.984375 
Q 14.796875 18.265625 18.828125 12.890625 
Q 22.859375 7.515625 30.078125 7.515625 
Q 37.359375 7.515625 41.375 12.890625 
Q 45.40625 18.265625 45.40625 27.984375 
z
M 54.390625 6.78125 
Q 54.390625 -7.171875 48.1875 -13.984375 
Q 42 -20.796875 29.203125 -20.796875 
Q 24.46875 -20.796875 20.265625 -20.09375 
Q 16.0625 -19.390625 12.109375 -17.921875 
L 12.109375 -9.1875 
Q 16.0625 -11.328125 19.921875 -12.34375 
Q 23.78125 -13.375 27.78125 -13.375 
Q 36.625 -13.375 41.015625 -8.765625 
Q 45.40625 -4.15625 45.40625 5.171875 
L 45.40625 9.625 
Q 42.625 4.78125 38.28125 2.390625 
Q 33.9375 0 27.875 0 
Q 17.828125 0 11.671875 7.65625 
Q 5.515625 15.328125 5.515625 27.984375 
Q 5.515625 40.671875 11.671875 48.328125 
Q 17.828125 56 27.875 56 
Q 33.9375 56 38.28125 53.609375 
Q 42.625 51.21875 45.40625 46.390625 
L 45.40625 54.6875 
L 54.390625 54.6875 
z
" id="DejaVuSans-103"/>
       <path d="M 41.109375 46.296875 
Q 39.59375 47.171875 37.8125 47.578125 
Q 36.03125 48 33.890625 48 
Q 26.265625 48 22.1875 43.046875 
Q 18.109375 38.09375 18.109375 28.8125 
L 18.109375 0 
L 9.078125 0 
L 9.078125 54.6875 
L 18.109375 54.6875 
L 18.109375 46.1875 
Q 20.953125 51.171875 25.484375 53.578125 
Q 30.03125 56 36.53125 56 
Q 37.453125 56 38.578125 55.875 
Q 39.703125 55.765625 41.0625 55.515625 
z
" id="DejaVuSans-114"/>
      </defs>
      <use xlink:href="#DejaVuSans-68"/>
      <use x="77.001953" xlink:href="#DejaVuSans-101"/>
      <use x="138.525391" xlink:href="#DejaVuSans-103"/>
      <use x="202.001953" xlink:href="#DejaVuSans-114"/>
      <use x="240.865234" xlink:href="#DejaVuSans-101"/>
      <use x="302.388672" xlink:href="#DejaVuSans-101"/>
     </g>
    </g>
   </g>
   <g id="matplotlib.axis_2">
    <g id="ytick_1">
     <g id="line2d_4">
      <path clip-path="url(#p793b1ce303)" d="M 90 302.645455 
L 648 302.645455 
" style="fill:none;stroke:#ffffff;stroke-linecap:round;"/>
     </g>
     <g id="text_5">
      <!-- $\mathdefault{10^{0}}$ -->
      <g style="fill:#ffffff;" transform="translate(61.14 306.824595)scale(0.11 -0.11)">
       <use transform="translate(0 0.765625)" xlink:href="#DejaVuSans-49"/>
       <use transform="translate(63.623047 0.765625)" xlink:href="#DejaVuSans-48"/>
       <use transform="translate(128.203125 39.046875)scale(0.7)" xlink:href="#DejaVuSans-48"/>
      </g>
     </g>
    </g>
    <g id="ytick_2">
     <g id="line2d_5">
      <path clip-path="url(#p793b1ce303)" d="M 90 207.200507 
L 648 207.200507 
" style="fill:none;stroke:#ffffff;stroke-linecap:round;"/>
     </g>
     <g id="text_6">
      <!-- $\mathdefault{10^{1}}$ -->
      <g style="fill:#ffffff;" transform="translate(61.14 211.379647)scale(0.11 -0.11)">
       <use transform="translate(0 0.684375)" xlink:href="#DejaVuSans-49"/>
       <use transform="translate(63.623047 0.684375)" xlink:href="#DejaVuSans-48"/>
       <use transform="translate(128.203125 38.965625)scale(0.7)" xlink:href="#DejaVuSans-49"/>
      </g>
     </g>
    </g>
    <g id="ytick_3">
     <g id="line2d_6">
      <path clip-path="url(#p793b1ce303)" d="M 90 111.755559 
L 648 111.755559 
" style="fill:none;stroke:#ffffff;stroke-linecap:round;"/>
     </g>
     <g id="text_7">
      <!-- $\mathdefault{10^{2}}$ -->
      <g style="fill:#ffffff;" transform="translate(61.14 115.934699)scale(0.11 -0.11)">
       <use transform="translate(0 0.765625)" xlink:href="#DejaVuSans-49"/>
       <use transform="translate(63.623047 0.765625)" xlink:href="#DejaVuSans-48"/>
       <use transform="translate(128.203125 39.046875)scale(0.7)" xlink:href="#DejaVuSans-50"/>
      </g>
     </g>
    </g>
    <g id="ytick_4"/>
    <g id="ytick_5"/>
    <g id="ytick_6"/>
    <g id="ytick_7"/>
    <g id="ytick_8"/>
    <g id="ytick_9"/>
    <g id="ytick_10"/>
    <g id="ytick_11"/>
    <g id="ytick_12"/>
    <g id="ytick_13"/>
    <g id="ytick_14"/>
    <g id="ytick_15"/>
    <g id="ytick_16"/>
    <g id="ytick_17"/>
    <g id="ytick_18"/>
    <g id="ytick_19"/>
    <g id="ytick_20"/>
    <g id="ytick_21"/>
    <g id="ytick_22"/>
    <g id="ytick_23"/>
    <g id="ytick_24"/>
    <g id="ytick_25"/>
    <g id="text_8">
     <!-- Number of artists -->
     <g style="fill:#ffffff;" transform="translate(54.644375 231.56625)rotate(-90)scale(0.12 -0.12)">
      <defs>
       <path d="M 9.8125 72.90625 
L 23.09375 72.90625 
L 55.421875 11.921875 
L 55.421875 72.90625 
L 64.984375 72.90625 
L 64.984375 0 
L 51.703125 0 
L 19.390625 60.984375 
L 19.390625 0 
L 9.8125 0 
z
" id="DejaVuSans-78"/>
       <path d="M 8.5 21.578125 
L 8.5 54.6875 
L 17.484375 54.6875 
L 17.484375 21.921875 
Q 17.484375 14.15625 20.5 10.265625 
Q 23.53125 6.390625 29.59375 6.390625 
Q 36.859375 6.390625 41.078125 11.03125 
Q 45.3125 15.671875 45.3125 23.6875 
L 45.3125 54.6875 
L 54.296875 54.6875 
L 54.296875 0 
L 45.3125 0 
L 45.3125 8.40625 
Q 42.046875 3.421875 37.71875 1 
Q 33.40625 -1.421875 27.6875 -1.421875 
Q 18.265625 -1.421875 13.375 4.4375 
Q 8.5 10.296875 8.5 21.578125 
z
M 31.109375 56 
z
" id="DejaVuSans-117"/>
       <path d="M 52 44.1875 
Q 55.375 50.25 60.0625 53.125 
Q 64.75 56 71.09375 56 
Q 79.640625 56 84.28125 50.015625 
Q 88.921875 44.046875 88.921875 33.015625 
L 88.921875 0 
L 79.890625 0 
L 79.890625 32.71875 
Q 79.890625 40.578125 77.09375 44.375 
Q 74.3125 48.1875 68.609375 48.1875 
Q 61.625 48.1875 57.5625 43.546875 
Q 53.515625 38.921875 53.515625 30.90625 
L 53.515625 0 
L 44.484375 0 
L 44.484375 32.71875 
Q 44.484375 40.625 41.703125 44.40625 
Q 38.921875 48.1875 33.109375 48.1875 
Q 26.21875 48.1875 22.15625 43.53125 
Q 18.109375 38.875 18.109375 30.90625 
L 18.109375 0 
L 9.078125 0 
L 9.078125 54.6875 
L 18.109375 54.6875 
L 18.109375 46.1875 
Q 21.1875 51.21875 25.484375 53.609375 
Q 29.78125 56 35.6875 56 
Q 41.65625 56 45.828125 52.96875 
Q 50 49.953125 52 44.1875 
z
" id="DejaVuSans-109"/>
       <path d="M 48.6875 27.296875 
Q 48.6875 37.203125 44.609375 42.84375 
Q 40.53125 48.484375 33.40625 48.484375 
Q 26.265625 48.484375 22.1875 42.84375 
Q 18.109375 37.203125 18.109375 27.296875 
Q 18.109375 17.390625 22.1875 11.75 
Q 26.265625 6.109375 33.40625 6.109375 
Q 40.53125 6.109375 44.609375 11.75 
Q 48.6875 17.390625 48.6875 27.296875 
z
M 18.109375 46.390625 
Q 20.953125 51.265625 25.265625 53.625 
Q 29.59375 56 35.59375 56 
Q 45.5625 56 51.78125 48.09375 
Q 58.015625 40.1875 58.015625 27.296875 
Q 58.015625 14.40625 51.78125 6.484375 
Q 45.5625 -1.421875 35.59375 -1.421875 
Q 29.59375 -1.421875 25.265625 0.953125 
Q 20.953125 3.328125 18.109375 8.203125 
L 18.109375 0 
L 9.078125 0 
L 9.078125 75.984375 
L 18.109375 75.984375 
z
" id="DejaVuSans-98"/>
       <path id="DejaVuSans-32"/>
       <path d="M 30.609375 48.390625 
Q 23.390625 48.390625 19.1875 42.75 
Q 14.984375 37.109375 14.984375 27.296875 
Q 14.984375 17.484375 19.15625 11.84375 
Q 23.34375 6.203125 30.609375 6.203125 
Q 37.796875 6.203125 41.984375 11.859375 
Q 46.1875 17.53125 46.1875 27.296875 
Q 46.1875 37.015625 41.984375 42.703125 
Q 37.796875 48.390625 30.609375 48.390625 
z
M 30.609375 56 
Q 42.328125 56 49.015625 48.375 
Q 55.71875 40.765625 55.71875 27.296875 
Q 55.71875 13.875 49.015625 6.21875 
Q 42.328125 -1.421875 30.609375 -1.421875 
Q 18.84375 -1.421875 12.171875 6.21875 
Q 5.515625 13.875 5.515625 27.296875 
Q 5.515625 40.765625 12.171875 48.375 
Q 18.84375 56 30.609375 56 
z
" id="DejaVuSans-111"/>
       <path d="M 37.109375 75.984375 
L 37.109375 68.5 
L 28.515625 68.5 
Q 23.6875 68.5 21.796875 66.546875 
Q 19.921875 64.59375 19.921875 59.515625 
L 19.921875 54.6875 
L 34.71875 54.6875 
L 34.71875 47.703125 
L 19.921875 47.703125 
L 19.921875 0 
L 10.890625 0 
L 10.890625 47.703125 
L 2.296875 47.703125 
L 2.296875 54.6875 
L 10.890625 54.6875 
L 10.890625 58.5 
Q 10.890625 67.625 15.140625 71.796875 
Q 19.390625 75.984375 28.609375 75.984375 
z
" id="DejaVuSans-102"/>
       <path d="M 34.28125 27.484375 
Q 23.390625 27.484375 19.1875 25 
Q 14.984375 22.515625 14.984375 16.5 
Q 14.984375 11.71875 18.140625 8.90625 
Q 21.296875 6.109375 26.703125 6.109375 
Q 34.1875 6.109375 38.703125 11.40625 
Q 43.21875 16.703125 43.21875 25.484375 
L 43.21875 27.484375 
z
M 52.203125 31.203125 
L 52.203125 0 
L 43.21875 0 
L 43.21875 8.296875 
Q 40.140625 3.328125 35.546875 0.953125 
Q 30.953125 -1.421875 24.3125 -1.421875 
Q 15.921875 -1.421875 10.953125 3.296875 
Q 6 8.015625 6 15.921875 
Q 6 25.140625 12.171875 29.828125 
Q 18.359375 34.515625 30.609375 34.515625 
L 43.21875 34.515625 
L 43.21875 35.40625 
Q 43.21875 41.609375 39.140625 45 
Q 35.0625 48.390625 27.6875 48.390625 
Q 23 48.390625 18.546875 47.265625 
Q 14.109375 46.140625 10.015625 43.890625 
L 10.015625 52.203125 
Q 14.9375 54.109375 19.578125 55.046875 
Q 24.21875 56 28.609375 56 
Q 40.484375 56 46.34375 49.84375 
Q 52.203125 43.703125 52.203125 31.203125 
z
" id="DejaVuSans-97"/>
       <path d="M 18.3125 70.21875 
L 18.3125 54.6875 
L 36.8125 54.6875 
L 36.8125 47.703125 
L 18.3125 47.703125 
L 18.3125 18.015625 
Q 18.3125 11.328125 20.140625 9.421875 
Q 21.96875 7.515625 27.59375 7.515625 
L 36.8125 7.515625 
L 36.8125 0 
L 27.59375 0 
Q 17.1875 0 13.234375 3.875 
Q 9.28125 7.765625 9.28125 18.015625 
L 9.28125 47.703125 
L 2.6875 47.703125 
L 2.6875 54.6875 
L 9.28125 54.6875 
L 9.28125 70.21875 
z
" id="DejaVuSans-116"/>
       <path d="M 9.421875 54.6875 
L 18.40625 54.6875 
L 18.40625 0 
L 9.421875 0 
z
M 9.421875 75.984375 
L 18.40625 75.984375 
L 18.40625 64.59375 
L 9.421875 64.59375 
z
" id="DejaVuSans-105"/>
       <path d="M 44.28125 53.078125 
L 44.28125 44.578125 
Q 40.484375 46.53125 36.375 47.5 
Q 32.28125 48.484375 27.875 48.484375 
Q 21.1875 48.484375 17.84375 46.4375 
Q 14.5 44.390625 14.5 40.28125 
Q 14.5 37.15625 16.890625 35.375 
Q 19.28125 33.59375 26.515625 31.984375 
L 29.59375 31.296875 
Q 39.15625 29.25 43.1875 25.515625 
Q 47.21875 21.78125 47.21875 15.09375 
Q 47.21875 7.46875 41.1875 3.015625 
Q 35.15625 -1.421875 24.609375 -1.421875 
Q 20.21875 -1.421875 15.453125 -0.5625 
Q 10.6875 0.296875 5.421875 2 
L 5.421875 11.28125 
Q 10.40625 8.6875 15.234375 7.390625 
Q 20.0625 6.109375 24.8125 6.109375 
Q 31.15625 6.109375 34.5625 8.28125 
Q 37.984375 10.453125 37.984375 14.40625 
Q 37.984375 18.0625 35.515625 20.015625 
Q 33.0625 21.96875 24.703125 23.78125 
L 21.578125 24.515625 
Q 13.234375 26.265625 9.515625 29.90625 
Q 5.8125 33.546875 5.8125 39.890625 
Q 5.8125 47.609375 11.28125 51.796875 
Q 16.75 56 26.8125 56 
Q 31.78125 56 36.171875 55.265625 
Q 40.578125 54.546875 44.28125 53.078125 
z
" id="DejaVuSans-115"/>
      </defs>
      <use xlink:href="#DejaVuSans-78"/>
      <use x="74.804688" xlink:href="#DejaVuSans-117"/>
      <use x="138.183594" xlink:href="#DejaVuSans-109"/>
      <use x="235.595703" xlink:href="#DejaVuSans-98"/>
      <use x="299.072266" xlink:href="#DejaVuSans-101"/>
      <use x="360.595703" xlink:href="#DejaVuSans-114"/>
      <use x="401.708984" xlink:href="#DejaVuSans-32"/>
      <use x="433.496094" xlink:href="#DejaVuSans-111"/>
      <use x="494.677734" xlink:href="#DejaVuSans-102"/>
      <use x="529.882812" xlink:href="#DejaVuSans-32"/>
      <use x="561.669922" xlink:href="#DejaVuSans-97"/>
      <use x="622.949219" xlink:href="#DejaVuSans-114"/>
      <use x="664.0625" xlink:href="#DejaVuSans-116"/>
      <use x="703.271484" xlink:href="#DejaVuSans-105"/>
      <use x="731.054688" xlink:href="#DejaVuSans-115"/>
      <use x="783.154297" xlink:href="#DejaVuSans-116"/>
      <use x="822.363281" xlink:href="#DejaVuSans-115"/>
     </g>
    </g>
   </g>
   <g id="PathCollection_1">
    <defs>
     <path d="M 0 3 
C 0.795609 3 1.55874 2.683901 2.12132 2.12132 
C 2.683901 1.55874 3 0.795609 3 0 
C 3 -0.795609 2.683901 -1.55874 2.12132 -2.12132 
C 1.55874 -2.683901 0.795609 -3 0 -3 
C -0.795609 -3 -1.55874 -2.683901 -2.12132 -2.12132 
C -2.683901 -1.55874 -3 -0.795609 -3 0 
C -3 0.795609 -2.683901 1.55874 -2.12132 2.12132 
C -1.55874 2.683901 -0.795609 3 0 3 
z
" id="m1d653d0220" style="stroke:#4c72b0;"/>
    </defs>
    <g clip-path="url(#p793b1ce303)">
     <use style="fill:#4c72b0;stroke:#4c72b0;" x="112.430852" xlink:href="#m1d653d0220" y="56.52737"/>
     <use style="fill:#4c72b0;stroke:#4c72b0;" x="182.107442" xlink:href="#m1d653d0220" y="55.554545"/>
     <use style="fill:#4c72b0;stroke:#4c72b0;" x="222.865635" xlink:href="#m1d653d0220" y="60.18384"/>
     <use style="fill:#4c72b0;stroke:#4c72b0;" x="251.784033" xlink:href="#m1d653d0220" y="64.724069"/>
     <use style="fill:#4c72b0;stroke:#4c72b0;" x="274.214885" xlink:href="#m1d653d0220" y="70.278152"/>
     <use style="fill:#4c72b0;stroke:#4c72b0;" x="292.542225" xlink:href="#m1d653d0220" y="69.076584"/>
     <use style="fill:#4c72b0;stroke:#4c72b0;" x="308.037771" xlink:href="#m1d653d0220" y="78.141517"/>
     <use style="fill:#4c72b0;stroke:#4c72b0;" x="321.460623" xlink:href="#m1d653d0220" y="88.796348"/>
     <use style="fill:#4c72b0;stroke:#4c72b0;" x="333.300418" xlink:href="#m1d653d0220" y="82.406615"/>
     <use style="fill:#4c72b0;stroke:#4c72b0;" x="343.891475" xlink:href="#m1d653d0220" y="92.533221"/>
     <use style="fill:#4c72b0;stroke:#4c72b0;" x="353.472252" xlink:href="#m1d653d0220" y="86.933059"/>
     <use style="fill:#4c72b0;stroke:#4c72b0;" x="362.218815" xlink:href="#m1d653d0220" y="102.505988"/>
     <use style="fill:#4c72b0;stroke:#4c72b0;" x="370.264874" xlink:href="#m1d653d0220" y="92.533221"/>
     <use style="fill:#4c72b0;stroke:#4c72b0;" x="377.714361" xlink:href="#m1d653d0220" y="107.804836"/>
     <use style="fill:#4c72b0;stroke:#4c72b0;" x="384.649667" xlink:href="#m1d653d0220" y="101.522909"/>
     <use style="fill:#4c72b0;stroke:#4c72b0;" x="391.137213" xlink:href="#m1d653d0220" y="101.20033"/>
     <use style="fill:#4c72b0;stroke:#4c72b0;" x="397.231326" xlink:href="#m1d653d0220" y="114.763702"/>
     <use style="fill:#4c72b0;stroke:#4c72b0;" x="402.977008" xlink:href="#m1d653d0220" y="115.211828"/>
     <use style="fill:#4c72b0;stroke:#4c72b0;" x="408.411957" xlink:href="#m1d653d0220" y="117.528141"/>
     <use style="fill:#4c72b0;stroke:#4c72b0;" x="413.568065" xlink:href="#m1d653d0220" y="120.490201"/>
     <use style="fill:#4c72b0;stroke:#4c72b0;" x="418.472553" xlink:href="#m1d653d0220" y="133.626577"/>
     <use style="fill:#4c72b0;stroke:#4c72b0;" x="423.148842" xlink:href="#m1d653d0220" y="149.736922"/>
     <use style="fill:#4c72b0;stroke:#4c72b0;" x="427.617225" xlink:href="#m1d653d0220" y="127.136599"/>
     <use style="fill:#4c72b0;stroke:#4c72b0;" x="431.895406" xlink:href="#m1d653d0220" y="124.800701"/>
     <use style="fill:#4c72b0;stroke:#4c72b0;" x="435.998917" xlink:href="#m1d653d0220" y="146.739143"/>
     <use style="fill:#4c72b0;stroke:#4c72b0;" x="439.941464" xlink:href="#m1d653d0220" y="138.072034"/>
     <use style="fill:#4c72b0;stroke:#4c72b0;" x="443.7352" xlink:href="#m1d653d0220" y="130.90749"/>
     <use style="fill:#4c72b0;stroke:#4c72b0;" x="447.390951" xlink:href="#m1d653d0220" y="148.713383"/>
     <use style="fill:#4c72b0;stroke:#4c72b0;" x="450.918403" xlink:href="#m1d653d0220" y="145.7862"/>
     <use style="fill:#4c72b0;stroke:#4c72b0;" x="454.326258" xlink:href="#m1d653d0220" y="123.131299"/>
     <use style="fill:#4c72b0;stroke:#4c72b0;" x="457.622359" xlink:href="#m1d653d0220" y="158.986493"/>
     <use style="fill:#4c72b0;stroke:#4c72b0;" x="460.813803" xlink:href="#m1d653d0220" y="132.244742"/>
     <use style="fill:#4c72b0;stroke:#4c72b0;" x="463.907034" xlink:href="#m1d653d0220" y="147.714511"/>
     <use style="fill:#4c72b0;stroke:#4c72b0;" x="466.907916" xlink:href="#m1d653d0220" y="169.219143"/>
     <use style="fill:#4c72b0;stroke:#4c72b0;" x="469.821803" xlink:href="#m1d653d0220" y="158.986493"/>
     <use style="fill:#4c72b0;stroke:#4c72b0;" x="472.653598" xlink:href="#m1d653d0220" y="174.517992"/>
     <use style="fill:#4c72b0;stroke:#4c72b0;" x="475.4078" xlink:href="#m1d653d0220" y="176.446303"/>
     <use style="fill:#4c72b0;stroke:#4c72b0;" x="478.088547" xlink:href="#m1d653d0220" y="172.675412"/>
     <use style="fill:#4c72b0;stroke:#4c72b0;" x="480.699657" xlink:href="#m1d653d0220" y="211.567828"/>
     <use style="fill:#4c72b0;stroke:#4c72b0;" x="483.244655" xlink:href="#m1d653d0220" y="182.836036"/>
     <use style="fill:#4c72b0;stroke:#4c72b0;" x="485.726808" xlink:href="#m1d653d0220" y="167.593397"/>
     <use style="fill:#4c72b0;stroke:#4c72b0;" x="488.149144" xlink:href="#m1d653d0220" y="172.675412"/>
     <use style="fill:#4c72b0;stroke:#4c72b0;" x="490.514478" xlink:href="#m1d653d0220" y="169.219143"/>
     <use style="fill:#4c72b0;stroke:#4c72b0;" x="492.825432" xlink:href="#m1d653d0220" y="190.393486"/>
     <use style="fill:#4c72b0;stroke:#4c72b0;" x="495.08445" xlink:href="#m1d653d0220" y="207.200507"/>
     <use style="fill:#4c72b0;stroke:#4c72b0;" x="497.293815" xlink:href="#m1d653d0220" y="193.253324"/>
     <use style="fill:#4c72b0;stroke:#4c72b0;" x="499.455664" xlink:href="#m1d653d0220" y="182.836036"/>
     <use style="fill:#4c72b0;stroke:#4c72b0;" x="501.571996" xlink:href="#m1d653d0220" y="228.374849"/>
     <use style="fill:#4c72b0;stroke:#4c72b0;" x="503.644689" xlink:href="#m1d653d0220" y="176.446303"/>
     <use style="fill:#4c72b0;stroke:#4c72b0;" x="505.675507" xlink:href="#m1d653d0220" y="211.567828"/>
     <use style="fill:#4c72b0;stroke:#4c72b0;" x="507.666108" xlink:href="#m1d653d0220" y="257.106641"/>
     <use style="fill:#4c72b0;stroke:#4c72b0;" x="509.618055" xlink:href="#m1d653d0220" y="257.106641"/>
     <use style="fill:#4c72b0;stroke:#4c72b0;" x="511.532819" xlink:href="#m1d653d0220" y="228.374849"/>
     <use style="fill:#4c72b0;stroke:#4c72b0;" x="513.411791" xlink:href="#m1d653d0220" y="257.106641"/>
     <use style="fill:#4c72b0;stroke:#4c72b0;" x="515.256284" xlink:href="#m1d653d0220" y="187.718286"/>
     <use style="fill:#4c72b0;stroke:#4c72b0;" x="517.067542" xlink:href="#m1d653d0220" y="187.718286"/>
     <use style="fill:#4c72b0;stroke:#4c72b0;" x="518.84674" xlink:href="#m1d653d0220" y="216.450078"/>
     <use style="fill:#4c72b0;stroke:#4c72b0;" x="520.594994" xlink:href="#m1d653d0220" y="203.249784"/>
     <use style="fill:#4c72b0;stroke:#4c72b0;" x="522.313362" xlink:href="#m1d653d0220" y="203.249784"/>
     <use style="fill:#4c72b0;stroke:#4c72b0;" x="524.002848" xlink:href="#m1d653d0220" y="187.718286"/>
     <use style="fill:#4c72b0;stroke:#4c72b0;" x="525.664408" xlink:href="#m1d653d0220" y="228.374849"/>
     <use style="fill:#4c72b0;stroke:#4c72b0;" x="527.298949" xlink:href="#m1d653d0220" y="216.450078"/>
     <use style="fill:#4c72b0;stroke:#4c72b0;" x="528.907336" xlink:href="#m1d653d0220" y="302.645455"/>
     <use style="fill:#4c72b0;stroke:#4c72b0;" x="530.490394" xlink:href="#m1d653d0220" y="211.567828"/>
     <use style="fill:#4c72b0;stroke:#4c72b0;" x="532.048907" xlink:href="#m1d653d0220" y="207.200507"/>
     <use style="fill:#4c72b0;stroke:#4c72b0;" x="533.583625" xlink:href="#m1d653d0220" y="134.335162"/>
     <use style="fill:#4c72b0;stroke:#4c72b0;" x="535.095263" xlink:href="#m1d653d0220" y="245.18187"/>
     <use style="fill:#4c72b0;stroke:#4c72b0;" x="536.584506" xlink:href="#m1d653d0220" y="273.913662"/>
     <use style="fill:#4c72b0;stroke:#4c72b0;" x="538.052008" xlink:href="#m1d653d0220" y="142.179472"/>
     <use style="fill:#4c72b0;stroke:#4c72b0;" x="539.498394" xlink:href="#m1d653d0220" y="207.200507"/>
     <use style="fill:#4c72b0;stroke:#4c72b0;" x="540.924262" xlink:href="#m1d653d0220" y="273.913662"/>
     <use style="fill:#4c72b0;stroke:#4c72b0;" x="542.330188" xlink:href="#m1d653d0220" y="228.374849"/>
     <use style="fill:#4c72b0;stroke:#4c72b0;" x="546.4337" xlink:href="#m1d653d0220" y="158.986493"/>
     <use style="fill:#4c72b0;stroke:#4c72b0;" x="547.765138" xlink:href="#m1d653d0220" y="273.913662"/>
     <use style="fill:#4c72b0;stroke:#4c72b0;" x="551.6568" xlink:href="#m1d653d0220" y="149.736922"/>
     <use style="fill:#4c72b0;stroke:#4c72b0;" x="555.403398" xlink:href="#m1d653d0220" y="257.106641"/>
     <use style="fill:#4c72b0;stroke:#4c72b0;" x="556.621863" xlink:href="#m1d653d0220" y="216.450078"/>
     <use style="fill:#4c72b0;stroke:#4c72b0;" x="557.825734" xlink:href="#m1d653d0220" y="228.374849"/>
     <use style="fill:#4c72b0;stroke:#4c72b0;" x="564.76104" xlink:href="#m1d653d0220" y="211.567828"/>
     <use style="fill:#4c72b0;stroke:#4c72b0;" x="571.248586" xlink:href="#m1d653d0220" y="203.249784"/>
     <use style="fill:#4c72b0;stroke:#4c72b0;" x="576.352326" xlink:href="#m1d653d0220" y="158.986493"/>
     <use style="fill:#4c72b0;stroke:#4c72b0;" x="578.32341" xlink:href="#m1d653d0220" y="143.94362"/>
    </g>
   </g>
   <g id="patch_3">
    <path d="M 90 315 
L 90 43.2 
" style="fill:none;stroke:#ffffff;stroke-linecap:square;stroke-linejoin:miter;stroke-width:1.25;"/>
   </g>
   <g id="patch_4">
    <path d="M 648 315 
L 648 43.2 
" style="fill:none;stroke:#ffffff;stroke-linecap:square;stroke-linejoin:miter;stroke-width:1.25;"/>
   </g>
   <g id="patch_5">
    <path d="M 90 315 
L 648 315 
" style="fill:none;stroke:#ffffff;stroke-linecap:square;stroke-linejoin:miter;stroke-width:1.25;"/>
   </g>
   <g id="patch_6">
    <path d="M 90 43.2 
L 648 43.2 
" style="fill:none;stroke:#ffffff;stroke-linecap:square;stroke-linejoin:miter;stroke-width:1.25;"/>
   </g>
   <g id="text_9">
    <!-- Degree Distribution (Log Log) -->
    <g style="fill:#ffffff;" transform="translate(250.7625 37.2)scale(0.16 -0.16)">
     <defs>
      <path d="M 54.890625 33.015625 
L 54.890625 0 
L 45.90625 0 
L 45.90625 32.71875 
Q 45.90625 40.484375 42.875 44.328125 
Q 39.84375 48.1875 33.796875 48.1875 
Q 26.515625 48.1875 22.3125 43.546875 
Q 18.109375 38.921875 18.109375 30.90625 
L 18.109375 0 
L 9.078125 0 
L 9.078125 54.6875 
L 18.109375 54.6875 
L 18.109375 46.1875 
Q 21.34375 51.125 25.703125 53.5625 
Q 30.078125 56 35.796875 56 
Q 45.21875 56 50.046875 50.171875 
Q 54.890625 44.34375 54.890625 33.015625 
z
" id="DejaVuSans-110"/>
      <path d="M 31 75.875 
Q 24.46875 64.65625 21.28125 53.65625 
Q 18.109375 42.671875 18.109375 31.390625 
Q 18.109375 20.125 21.3125 9.0625 
Q 24.515625 -2 31 -13.1875 
L 23.1875 -13.1875 
Q 15.875 -1.703125 12.234375 9.375 
Q 8.59375 20.453125 8.59375 31.390625 
Q 8.59375 42.28125 12.203125 53.3125 
Q 15.828125 64.359375 23.1875 75.875 
z
" id="DejaVuSans-40"/>
      <path d="M 9.8125 72.90625 
L 19.671875 72.90625 
L 19.671875 8.296875 
L 55.171875 8.296875 
L 55.171875 0 
L 9.8125 0 
z
" id="DejaVuSans-76"/>
      <path d="M 8.015625 75.875 
L 15.828125 75.875 
Q 23.140625 64.359375 26.78125 53.3125 
Q 30.421875 42.28125 30.421875 31.390625 
Q 30.421875 20.453125 26.78125 9.375 
Q 23.140625 -1.703125 15.828125 -13.1875 
L 8.015625 -13.1875 
Q 14.5 -2 17.703125 9.0625 
Q 20.90625 20.125 20.90625 31.390625 
Q 20.90625 42.671875 17.703125 53.65625 
Q 14.5 64.65625 8.015625 75.875 
z
" id="DejaVuSans-41"/>
     </defs>
     <use xlink:href="#DejaVuSans-68"/>
     <use x="77.001953" xlink:href="#DejaVuSans-101"/>
     <use x="138.525391" xlink:href="#DejaVuSans-103"/>
     <use x="202.001953" xlink:href="#DejaVuSans-114"/>
     <use x="240.865234" xlink:href="#DejaVuSans-101"/>
     <use x="302.388672" xlink:href="#DejaVuSans-101"/>
     <use x="363.912109" xlink:href="#DejaVuSans-32"/>
     <use x="395.699219" xlink:href="#DejaVuSans-68"/>
     <use x="472.701172" xlink:href="#DejaVuSans-105"/>
     <use x="500.484375" xlink:href="#DejaVuSans-115"/>
     <use x="552.583984" xlink:href="#DejaVuSans-116"/>
     <use x="591.792969" xlink:href="#DejaVuSans-114"/>
     <use x="632.90625" xlink:href="#DejaVuSans-105"/>
     <use x="660.689453" xlink:href="#DejaVuSans-98"/>
     <use x="724.166016" xlink:href="#DejaVuSans-117"/>
     <use x="787.544922" xlink:href="#DejaVuSans-116"/>
     <use x="826.753906" xlink:href="#DejaVuSans-105"/>
     <use x="854.537109" xlink:href="#DejaVuSans-111"/>
     <use x="915.71875" xlink:href="#DejaVuSans-110"/>
     <use x="979.097656" xlink:href="#DejaVuSans-32"/>
     <use x="1010.884766" xlink:href="#DejaVuSans-40"/>
     <use x="1049.898438" xlink:href="#DejaVuSans-76"/>
     <use x="1103.861328" xlink:href="#DejaVuSans-111"/>
     <use x="1165.042969" xlink:href="#DejaVuSans-103"/>
     <use x="1228.519531" xlink:href="#DejaVuSans-32"/>
     <use x="1260.306641" xlink:href="#DejaVuSans-76"/>
     <use x="1314.269531" xlink:href="#DejaVuSans-111"/>
     <use x="1375.451172" xlink:href="#DejaVuSans-103"/>
     <use x="1438.927734" xlink:href="#DejaVuSans-41"/>
    </g>
   </g>
  </g>
 </g>
 <defs>
  <clipPath id="p793b1ce303">
   <rect height="271.8" width="558" x="90" y="43.2"/>
  </clipPath>
 </defs>
</svg>
