<?xml version="1.0" encoding="utf-8" standalone="no"?>
<!DOCTYPE svg PUBLIC "-//W3C//DTD SVG 1.1//EN"
  "http://www.w3.org/Graphics/SVG/1.1/DTD/svg11.dtd">
<!-- Created with matplotlib (https://matplotlib.org/) -->
<svg height="288pt" version="1.1" viewBox="0 0 432 288" width="432pt" xmlns="http://www.w3.org/2000/svg" xmlns:xlink="http://www.w3.org/1999/xlink">
 <metadata>
  <rdf:RDF xmlns:cc="http://creativecommons.org/ns#" xmlns:dc="http://purl.org/dc/elements/1.1/" xmlns:rdf="http://www.w3.org/1999/02/22-rdf-syntax-ns#">
   <cc:Work>
    <dc:type rdf:resource="http://purl.org/dc/dcmitype/StillImage"/>
    <dc:date>2020-12-06T20:36:08.925164</dc:date>
    <dc:format>image/svg+xml</dc:format>
    <dc:creator>
     <cc:Agent>
      <dc:title>Matplotlib v3.3.3, https://matplotlib.org/</dc:title>
     </cc:Agent>
    </dc:creator>
   </cc:Work>
  </rdf:RDF>
 </metadata>
 <defs>
  <style type="text/css">*{stroke-linecap:butt;stroke-linejoin:round;}</style>
 </defs>
 <g id="figure_1">
  <g id="patch_1">
   <path d="M 0 288 
L 432 288 
L 432 0 
L 0 0 
z
" style="fill:none;"/>
  </g>
  <g id="axes_1">
   <g id="patch_2">
    <path d="M 54 252 
L 388.8 252 
L 388.8 34.56 
L 54 34.56 
z
" style="fill:#ffffff;"/>
   </g>
   <g id="matplotlib.axis_1">
    <g id="xtick_1">
     <g id="line2d_1">
      <defs>
       <path d="M 0 0 
L 0 3.5 
" id="m4be7f42ed7" style="stroke:#ffffff;stroke-width:0.8;"/>
      </defs>
      <g>
       <use style="fill:#ffffff;stroke:#ffffff;stroke-width:0.8;" x="69.218182" xlink:href="#m4be7f42ed7" y="252"/>
      </g>
     </g>
     <g id="text_1">
      <!-- 0 -->
      <g style="fill:#ffffff;" transform="translate(66.036932 266.598437)scale(0.1 -0.1)">
       <defs>
        <path d="M 31.78125 66.40625 
Q 24.171875 66.40625 20.328125 58.90625 
Q 16.5 51.421875 16.5 36.375 
Q 16.5 21.390625 20.328125 13.890625 
Q 24.171875 6.390625 31.78125 6.390625 
Q 39.453125 6.390625 43.28125 13.890625 
Q 47.125 21.390625 47.125 36.375 
Q 47.125 51.421875 43.28125 58.90625 
Q 39.453125 66.40625 31.78125 66.40625 
z
M 31.78125 74.21875 
Q 44.046875 74.21875 50.515625 64.515625 
Q 56.984375 54.828125 56.984375 36.375 
Q 56.984375 17.96875 50.515625 8.265625 
Q 44.046875 -1.421875 31.78125 -1.421875 
Q 19.53125 -1.421875 13.0625 8.265625 
Q 6.59375 17.96875 6.59375 36.375 
Q 6.59375 54.828125 13.0625 64.515625 
Q 19.53125 74.21875 31.78125 74.21875 
z
" id="DejaVuSans-48"/>
       </defs>
       <use xlink:href="#DejaVuSans-48"/>
      </g>
     </g>
    </g>
    <g id="xtick_2">
     <g id="line2d_2">
      <g>
       <use style="fill:#ffffff;stroke:#ffffff;stroke-width:0.8;" x="115.333884" xlink:href="#m4be7f42ed7" y="252"/>
      </g>
     </g>
     <g id="text_2">
      <!-- 500 -->
      <g style="fill:#ffffff;" transform="translate(105.790134 266.598437)scale(0.1 -0.1)">
       <defs>
        <path d="M 10.796875 72.90625 
L 49.515625 72.90625 
L 49.515625 64.59375 
L 19.828125 64.59375 
L 19.828125 46.734375 
Q 21.96875 47.46875 24.109375 47.828125 
Q 26.265625 48.1875 28.421875 48.1875 
Q 40.625 48.1875 47.75 41.5 
Q 54.890625 34.8125 54.890625 23.390625 
Q 54.890625 11.625 47.5625 5.09375 
Q 40.234375 -1.421875 26.90625 -1.421875 
Q 22.3125 -1.421875 17.546875 -0.640625 
Q 12.796875 0.140625 7.71875 1.703125 
L 7.71875 11.625 
Q 12.109375 9.234375 16.796875 8.0625 
Q 21.484375 6.890625 26.703125 6.890625 
Q 35.15625 6.890625 40.078125 11.328125 
Q 45.015625 15.765625 45.015625 23.390625 
Q 45.015625 31 40.078125 35.4375 
Q 35.15625 39.890625 26.703125 39.890625 
Q 22.75 39.890625 18.8125 39.015625 
Q 14.890625 38.140625 10.796875 36.28125 
z
" id="DejaVuSans-53"/>
       </defs>
       <use xlink:href="#DejaVuSans-53"/>
       <use x="63.623047" xlink:href="#DejaVuSans-48"/>
       <use x="127.246094" xlink:href="#DejaVuSans-48"/>
      </g>
     </g>
    </g>
    <g id="xtick_3">
     <g id="line2d_3">
      <g>
       <use style="fill:#ffffff;stroke:#ffffff;stroke-width:0.8;" x="161.449587" xlink:href="#m4be7f42ed7" y="252"/>
      </g>
     </g>
     <g id="text_3">
      <!-- 1000 -->
      <g style="fill:#ffffff;" transform="translate(148.724587 266.598437)scale(0.1 -0.1)">
       <defs>
        <path d="M 12.40625 8.296875 
L 28.515625 8.296875 
L 28.515625 63.921875 
L 10.984375 60.40625 
L 10.984375 69.390625 
L 28.421875 72.90625 
L 38.28125 72.90625 
L 38.28125 8.296875 
L 54.390625 8.296875 
L 54.390625 0 
L 12.40625 0 
z
" id="DejaVuSans-49"/>
       </defs>
       <use xlink:href="#DejaVuSans-49"/>
       <use x="63.623047" xlink:href="#DejaVuSans-48"/>
       <use x="127.246094" xlink:href="#DejaVuSans-48"/>
       <use x="190.869141" xlink:href="#DejaVuSans-48"/>
      </g>
     </g>
    </g>
    <g id="xtick_4">
     <g id="line2d_4">
      <g>
       <use style="fill:#ffffff;stroke:#ffffff;stroke-width:0.8;" x="207.565289" xlink:href="#m4be7f42ed7" y="252"/>
      </g>
     </g>
     <g id="text_4">
      <!-- 1500 -->
      <g style="fill:#ffffff;" transform="translate(194.840289 266.598437)scale(0.1 -0.1)">
       <use xlink:href="#DejaVuSans-49"/>
       <use x="63.623047" xlink:href="#DejaVuSans-53"/>
       <use x="127.246094" xlink:href="#DejaVuSans-48"/>
       <use x="190.869141" xlink:href="#DejaVuSans-48"/>
      </g>
     </g>
    </g>
    <g id="xtick_5">
     <g id="line2d_5">
      <g>
       <use style="fill:#ffffff;stroke:#ffffff;stroke-width:0.8;" x="253.680992" xlink:href="#m4be7f42ed7" y="252"/>
      </g>
     </g>
     <g id="text_5">
      <!-- 2000 -->
      <g style="fill:#ffffff;" transform="translate(240.955992 266.598437)scale(0.1 -0.1)">
       <defs>
        <path d="M 19.1875 8.296875 
L 53.609375 8.296875 
L 53.609375 0 
L 7.328125 0 
L 7.328125 8.296875 
Q 12.9375 14.109375 22.625 23.890625 
Q 32.328125 33.6875 34.8125 36.53125 
Q 39.546875 41.84375 41.421875 45.53125 
Q 43.3125 49.21875 43.3125 52.78125 
Q 43.3125 58.59375 39.234375 62.25 
Q 35.15625 65.921875 28.609375 65.921875 
Q 23.96875 65.921875 18.8125 64.3125 
Q 13.671875 62.703125 7.8125 59.421875 
L 7.8125 69.390625 
Q 13.765625 71.78125 18.9375 73 
Q 24.125 74.21875 28.421875 74.21875 
Q 39.75 74.21875 46.484375 68.546875 
Q 53.21875 62.890625 53.21875 53.421875 
Q 53.21875 48.921875 51.53125 44.890625 
Q 49.859375 40.875 45.40625 35.40625 
Q 44.1875 33.984375 37.640625 27.21875 
Q 31.109375 20.453125 19.1875 8.296875 
z
" id="DejaVuSans-50"/>
       </defs>
       <use xlink:href="#DejaVuSans-50"/>
       <use x="63.623047" xlink:href="#DejaVuSans-48"/>
       <use x="127.246094" xlink:href="#DejaVuSans-48"/>
       <use x="190.869141" xlink:href="#DejaVuSans-48"/>
      </g>
     </g>
    </g>
    <g id="xtick_6">
     <g id="line2d_6">
      <g>
       <use style="fill:#ffffff;stroke:#ffffff;stroke-width:0.8;" x="299.796694" xlink:href="#m4be7f42ed7" y="252"/>
      </g>
     </g>
     <g id="text_6">
      <!-- 2500 -->
      <g style="fill:#ffffff;" transform="translate(287.071694 266.598437)scale(0.1 -0.1)">
       <use xlink:href="#DejaVuSans-50"/>
       <use x="63.623047" xlink:href="#DejaVuSans-53"/>
       <use x="127.246094" xlink:href="#DejaVuSans-48"/>
       <use x="190.869141" xlink:href="#DejaVuSans-48"/>
      </g>
     </g>
    </g>
    <g id="xtick_7">
     <g id="line2d_7">
      <g>
       <use style="fill:#ffffff;stroke:#ffffff;stroke-width:0.8;" x="345.912397" xlink:href="#m4be7f42ed7" y="252"/>
      </g>
     </g>
     <g id="text_7">
      <!-- 3000 -->
      <g style="fill:#ffffff;" transform="translate(333.187397 266.598437)scale(0.1 -0.1)">
       <defs>
        <path d="M 40.578125 39.3125 
Q 47.65625 37.796875 51.625 33 
Q 55.609375 28.21875 55.609375 21.1875 
Q 55.609375 10.40625 48.1875 4.484375 
Q 40.765625 -1.421875 27.09375 -1.421875 
Q 22.515625 -1.421875 17.65625 -0.515625 
Q 12.796875 0.390625 7.625 2.203125 
L 7.625 11.71875 
Q 11.71875 9.328125 16.59375 8.109375 
Q 21.484375 6.890625 26.8125 6.890625 
Q 36.078125 6.890625 40.9375 10.546875 
Q 45.796875 14.203125 45.796875 21.1875 
Q 45.796875 27.640625 41.28125 31.265625 
Q 36.765625 34.90625 28.71875 34.90625 
L 20.21875 34.90625 
L 20.21875 43.015625 
L 29.109375 43.015625 
Q 36.375 43.015625 40.234375 45.921875 
Q 44.09375 48.828125 44.09375 54.296875 
Q 44.09375 59.90625 40.109375 62.90625 
Q 36.140625 65.921875 28.71875 65.921875 
Q 24.65625 65.921875 20.015625 65.03125 
Q 15.375 64.15625 9.8125 62.3125 
L 9.8125 71.09375 
Q 15.4375 72.65625 20.34375 73.4375 
Q 25.25 74.21875 29.59375 74.21875 
Q 40.828125 74.21875 47.359375 69.109375 
Q 53.90625 64.015625 53.90625 55.328125 
Q 53.90625 49.265625 50.4375 45.09375 
Q 46.96875 40.921875 40.578125 39.3125 
z
" id="DejaVuSans-51"/>
       </defs>
       <use xlink:href="#DejaVuSans-51"/>
       <use x="63.623047" xlink:href="#DejaVuSans-48"/>
       <use x="127.246094" xlink:href="#DejaVuSans-48"/>
       <use x="190.869141" xlink:href="#DejaVuSans-48"/>
      </g>
     </g>
    </g>
    <g id="text_8">
     <!-- Genre -->
     <g style="fill:#ffffff;" transform="translate(206.260938 280.276563)scale(0.1 -0.1)">
      <defs>
       <path d="M 59.515625 10.40625 
L 59.515625 29.984375 
L 43.40625 29.984375 
L 43.40625 38.09375 
L 69.28125 38.09375 
L 69.28125 6.78125 
Q 63.578125 2.734375 56.6875 0.65625 
Q 49.8125 -1.421875 42 -1.421875 
Q 24.90625 -1.421875 15.25 8.5625 
Q 5.609375 18.5625 5.609375 36.375 
Q 5.609375 54.25 15.25 64.234375 
Q 24.90625 74.21875 42 74.21875 
Q 49.125 74.21875 55.546875 72.453125 
Q 61.96875 70.703125 67.390625 67.28125 
L 67.390625 56.78125 
Q 61.921875 61.421875 55.765625 63.765625 
Q 49.609375 66.109375 42.828125 66.109375 
Q 29.4375 66.109375 22.71875 58.640625 
Q 16.015625 51.171875 16.015625 36.375 
Q 16.015625 21.625 22.71875 14.15625 
Q 29.4375 6.6875 42.828125 6.6875 
Q 48.046875 6.6875 52.140625 7.59375 
Q 56.25 8.5 59.515625 10.40625 
z
" id="DejaVuSans-71"/>
       <path d="M 56.203125 29.59375 
L 56.203125 25.203125 
L 14.890625 25.203125 
Q 15.484375 15.921875 20.484375 11.0625 
Q 25.484375 6.203125 34.421875 6.203125 
Q 39.59375 6.203125 44.453125 7.46875 
Q 49.3125 8.734375 54.109375 11.28125 
L 54.109375 2.78125 
Q 49.265625 0.734375 44.1875 -0.34375 
Q 39.109375 -1.421875 33.890625 -1.421875 
Q 20.796875 -1.421875 13.15625 6.1875 
Q 5.515625 13.8125 5.515625 26.8125 
Q 5.515625 40.234375 12.765625 48.109375 
Q 20.015625 56 32.328125 56 
Q 43.359375 56 49.78125 48.890625 
Q 56.203125 41.796875 56.203125 29.59375 
z
M 47.21875 32.234375 
Q 47.125 39.59375 43.09375 43.984375 
Q 39.0625 48.390625 32.421875 48.390625 
Q 24.90625 48.390625 20.390625 44.140625 
Q 15.875 39.890625 15.1875 32.171875 
z
" id="DejaVuSans-101"/>
       <path d="M 54.890625 33.015625 
L 54.890625 0 
L 45.90625 0 
L 45.90625 32.71875 
Q 45.90625 40.484375 42.875 44.328125 
Q 39.84375 48.1875 33.796875 48.1875 
Q 26.515625 48.1875 22.3125 43.546875 
Q 18.109375 38.921875 18.109375 30.90625 
L 18.109375 0 
L 9.078125 0 
L 9.078125 54.6875 
L 18.109375 54.6875 
L 18.109375 46.1875 
Q 21.34375 51.125 25.703125 53.5625 
Q 30.078125 56 35.796875 56 
Q 45.21875 56 50.046875 50.171875 
Q 54.890625 44.34375 54.890625 33.015625 
z
" id="DejaVuSans-110"/>
       <path d="M 41.109375 46.296875 
Q 39.59375 47.171875 37.8125 47.578125 
Q 36.03125 48 33.890625 48 
Q 26.265625 48 22.1875 43.046875 
Q 18.109375 38.09375 18.109375 28.8125 
L 18.109375 0 
L 9.078125 0 
L 9.078125 54.6875 
L 18.109375 54.6875 
L 18.109375 46.1875 
Q 20.953125 51.171875 25.484375 53.578125 
Q 30.03125 56 36.53125 56 
Q 37.453125 56 38.578125 55.875 
Q 39.703125 55.765625 41.0625 55.515625 
z
" id="DejaVuSans-114"/>
      </defs>
      <use xlink:href="#DejaVuSans-71"/>
      <use x="77.490234" xlink:href="#DejaVuSans-101"/>
      <use x="139.013672" xlink:href="#DejaVuSans-110"/>
      <use x="202.392578" xlink:href="#DejaVuSans-114"/>
      <use x="241.255859" xlink:href="#DejaVuSans-101"/>
     </g>
    </g>
   </g>
   <g id="matplotlib.axis_2">
    <g id="ytick_1">
     <g id="line2d_8">
      <defs>
       <path d="M 0 0 
L -3.5 0 
" id="m6c497941ee" style="stroke:#ffffff;stroke-width:0.8;"/>
      </defs>
      <g>
       <use style="fill:#ffffff;stroke:#ffffff;stroke-width:0.8;" x="54" xlink:href="#m6c497941ee" y="242.481073"/>
      </g>
     </g>
     <g id="text_9">
      <!-- 0 -->
      <g style="fill:#ffffff;" transform="translate(40.6375 246.280292)scale(0.1 -0.1)">
       <use xlink:href="#DejaVuSans-48"/>
      </g>
     </g>
    </g>
    <g id="ytick_2">
     <g id="line2d_9">
      <g>
       <use style="fill:#ffffff;stroke:#ffffff;stroke-width:0.8;" x="54" xlink:href="#m6c497941ee" y="206.010091"/>
      </g>
     </g>
     <g id="text_10">
      <!-- 100 -->
      <g style="fill:#ffffff;" transform="translate(27.9125 209.809309)scale(0.1 -0.1)">
       <use xlink:href="#DejaVuSans-49"/>
       <use x="63.623047" xlink:href="#DejaVuSans-48"/>
       <use x="127.246094" xlink:href="#DejaVuSans-48"/>
      </g>
     </g>
    </g>
    <g id="ytick_3">
     <g id="line2d_10">
      <g>
       <use style="fill:#ffffff;stroke:#ffffff;stroke-width:0.8;" x="54" xlink:href="#m6c497941ee" y="169.539108"/>
      </g>
     </g>
     <g id="text_11">
      <!-- 200 -->
      <g style="fill:#ffffff;" transform="translate(27.9125 173.338326)scale(0.1 -0.1)">
       <use xlink:href="#DejaVuSans-50"/>
       <use x="63.623047" xlink:href="#DejaVuSans-48"/>
       <use x="127.246094" xlink:href="#DejaVuSans-48"/>
      </g>
     </g>
    </g>
    <g id="ytick_4">
     <g id="line2d_11">
      <g>
       <use style="fill:#ffffff;stroke:#ffffff;stroke-width:0.8;" x="54" xlink:href="#m6c497941ee" y="133.068125"/>
      </g>
     </g>
     <g id="text_12">
      <!-- 300 -->
      <g style="fill:#ffffff;" transform="translate(27.9125 136.867344)scale(0.1 -0.1)">
       <use xlink:href="#DejaVuSans-51"/>
       <use x="63.623047" xlink:href="#DejaVuSans-48"/>
       <use x="127.246094" xlink:href="#DejaVuSans-48"/>
      </g>
     </g>
    </g>
    <g id="ytick_5">
     <g id="line2d_12">
      <g>
       <use style="fill:#ffffff;stroke:#ffffff;stroke-width:0.8;" x="54" xlink:href="#m6c497941ee" y="96.597142"/>
      </g>
     </g>
     <g id="text_13">
      <!-- 400 -->
      <g style="fill:#ffffff;" transform="translate(27.9125 100.396361)scale(0.1 -0.1)">
       <defs>
        <path d="M 37.796875 64.3125 
L 12.890625 25.390625 
L 37.796875 25.390625 
z
M 35.203125 72.90625 
L 47.609375 72.90625 
L 47.609375 25.390625 
L 58.015625 25.390625 
L 58.015625 17.1875 
L 47.609375 17.1875 
L 47.609375 0 
L 37.796875 0 
L 37.796875 17.1875 
L 4.890625 17.1875 
L 4.890625 26.703125 
z
" id="DejaVuSans-52"/>
       </defs>
       <use xlink:href="#DejaVuSans-52"/>
       <use x="63.623047" xlink:href="#DejaVuSans-48"/>
       <use x="127.246094" xlink:href="#DejaVuSans-48"/>
      </g>
     </g>
    </g>
    <g id="ytick_6">
     <g id="line2d_13">
      <g>
       <use style="fill:#ffffff;stroke:#ffffff;stroke-width:0.8;" x="54" xlink:href="#m6c497941ee" y="60.126159"/>
      </g>
     </g>
     <g id="text_14">
      <!-- 500 -->
      <g style="fill:#ffffff;" transform="translate(27.9125 63.925378)scale(0.1 -0.1)">
       <use xlink:href="#DejaVuSans-53"/>
       <use x="63.623047" xlink:href="#DejaVuSans-48"/>
       <use x="127.246094" xlink:href="#DejaVuSans-48"/>
      </g>
     </g>
    </g>
    <g id="text_15">
     <!-- Number of artists -->
     <g style="fill:#ffffff;" transform="translate(21.832812 187.001875)rotate(-90)scale(0.1 -0.1)">
      <defs>
       <path d="M 9.8125 72.90625 
L 23.09375 72.90625 
L 55.421875 11.921875 
L 55.421875 72.90625 
L 64.984375 72.90625 
L 64.984375 0 
L 51.703125 0 
L 19.390625 60.984375 
L 19.390625 0 
L 9.8125 0 
z
" id="DejaVuSans-78"/>
       <path d="M 8.5 21.578125 
L 8.5 54.6875 
L 17.484375 54.6875 
L 17.484375 21.921875 
Q 17.484375 14.15625 20.5 10.265625 
Q 23.53125 6.390625 29.59375 6.390625 
Q 36.859375 6.390625 41.078125 11.03125 
Q 45.3125 15.671875 45.3125 23.6875 
L 45.3125 54.6875 
L 54.296875 54.6875 
L 54.296875 0 
L 45.3125 0 
L 45.3125 8.40625 
Q 42.046875 3.421875 37.71875 1 
Q 33.40625 -1.421875 27.6875 -1.421875 
Q 18.265625 -1.421875 13.375 4.4375 
Q 8.5 10.296875 8.5 21.578125 
z
M 31.109375 56 
z
" id="DejaVuSans-117"/>
       <path d="M 52 44.1875 
Q 55.375 50.25 60.0625 53.125 
Q 64.75 56 71.09375 56 
Q 79.640625 56 84.28125 50.015625 
Q 88.921875 44.046875 88.921875 33.015625 
L 88.921875 0 
L 79.890625 0 
L 79.890625 32.71875 
Q 79.890625 40.578125 77.09375 44.375 
Q 74.3125 48.1875 68.609375 48.1875 
Q 61.625 48.1875 57.5625 43.546875 
Q 53.515625 38.921875 53.515625 30.90625 
L 53.515625 0 
L 44.484375 0 
L 44.484375 32.71875 
Q 44.484375 40.625 41.703125 44.40625 
Q 38.921875 48.1875 33.109375 48.1875 
Q 26.21875 48.1875 22.15625 43.53125 
Q 18.109375 38.875 18.109375 30.90625 
L 18.109375 0 
L 9.078125 0 
L 9.078125 54.6875 
L 18.109375 54.6875 
L 18.109375 46.1875 
Q 21.1875 51.21875 25.484375 53.609375 
Q 29.78125 56 35.6875 56 
Q 41.65625 56 45.828125 52.96875 
Q 50 49.953125 52 44.1875 
z
" id="DejaVuSans-109"/>
       <path d="M 48.6875 27.296875 
Q 48.6875 37.203125 44.609375 42.84375 
Q 40.53125 48.484375 33.40625 48.484375 
Q 26.265625 48.484375 22.1875 42.84375 
Q 18.109375 37.203125 18.109375 27.296875 
Q 18.109375 17.390625 22.1875 11.75 
Q 26.265625 6.109375 33.40625 6.109375 
Q 40.53125 6.109375 44.609375 11.75 
Q 48.6875 17.390625 48.6875 27.296875 
z
M 18.109375 46.390625 
Q 20.953125 51.265625 25.265625 53.625 
Q 29.59375 56 35.59375 56 
Q 45.5625 56 51.78125 48.09375 
Q 58.015625 40.1875 58.015625 27.296875 
Q 58.015625 14.40625 51.78125 6.484375 
Q 45.5625 -1.421875 35.59375 -1.421875 
Q 29.59375 -1.421875 25.265625 0.953125 
Q 20.953125 3.328125 18.109375 8.203125 
L 18.109375 0 
L 9.078125 0 
L 9.078125 75.984375 
L 18.109375 75.984375 
z
" id="DejaVuSans-98"/>
       <path id="DejaVuSans-32"/>
       <path d="M 30.609375 48.390625 
Q 23.390625 48.390625 19.1875 42.75 
Q 14.984375 37.109375 14.984375 27.296875 
Q 14.984375 17.484375 19.15625 11.84375 
Q 23.34375 6.203125 30.609375 6.203125 
Q 37.796875 6.203125 41.984375 11.859375 
Q 46.1875 17.53125 46.1875 27.296875 
Q 46.1875 37.015625 41.984375 42.703125 
Q 37.796875 48.390625 30.609375 48.390625 
z
M 30.609375 56 
Q 42.328125 56 49.015625 48.375 
Q 55.71875 40.765625 55.71875 27.296875 
Q 55.71875 13.875 49.015625 6.21875 
Q 42.328125 -1.421875 30.609375 -1.421875 
Q 18.84375 -1.421875 12.171875 6.21875 
Q 5.515625 13.875 5.515625 27.296875 
Q 5.515625 40.765625 12.171875 48.375 
Q 18.84375 56 30.609375 56 
z
" id="DejaVuSans-111"/>
       <path d="M 37.109375 75.984375 
L 37.109375 68.5 
L 28.515625 68.5 
Q 23.6875 68.5 21.796875 66.546875 
Q 19.921875 64.59375 19.921875 59.515625 
L 19.921875 54.6875 
L 34.71875 54.6875 
L 34.71875 47.703125 
L 19.921875 47.703125 
L 19.921875 0 
L 10.890625 0 
L 10.890625 47.703125 
L 2.296875 47.703125 
L 2.296875 54.6875 
L 10.890625 54.6875 
L 10.890625 58.5 
Q 10.890625 67.625 15.140625 71.796875 
Q 19.390625 75.984375 28.609375 75.984375 
z
" id="DejaVuSans-102"/>
       <path d="M 34.28125 27.484375 
Q 23.390625 27.484375 19.1875 25 
Q 14.984375 22.515625 14.984375 16.5 
Q 14.984375 11.71875 18.140625 8.90625 
Q 21.296875 6.109375 26.703125 6.109375 
Q 34.1875 6.109375 38.703125 11.40625 
Q 43.21875 16.703125 43.21875 25.484375 
L 43.21875 27.484375 
z
M 52.203125 31.203125 
L 52.203125 0 
L 43.21875 0 
L 43.21875 8.296875 
Q 40.140625 3.328125 35.546875 0.953125 
Q 30.953125 -1.421875 24.3125 -1.421875 
Q 15.921875 -1.421875 10.953125 3.296875 
Q 6 8.015625 6 15.921875 
Q 6 25.140625 12.171875 29.828125 
Q 18.359375 34.515625 30.609375 34.515625 
L 43.21875 34.515625 
L 43.21875 35.40625 
Q 43.21875 41.609375 39.140625 45 
Q 35.0625 48.390625 27.6875 48.390625 
Q 23 48.390625 18.546875 47.265625 
Q 14.109375 46.140625 10.015625 43.890625 
L 10.015625 52.203125 
Q 14.9375 54.109375 19.578125 55.046875 
Q 24.21875 56 28.609375 56 
Q 40.484375 56 46.34375 49.84375 
Q 52.203125 43.703125 52.203125 31.203125 
z
" id="DejaVuSans-97"/>
       <path d="M 18.3125 70.21875 
L 18.3125 54.6875 
L 36.8125 54.6875 
L 36.8125 47.703125 
L 18.3125 47.703125 
L 18.3125 18.015625 
Q 18.3125 11.328125 20.140625 9.421875 
Q 21.96875 7.515625 27.59375 7.515625 
L 36.8125 7.515625 
L 36.8125 0 
L 27.59375 0 
Q 17.1875 0 13.234375 3.875 
Q 9.28125 7.765625 9.28125 18.015625 
L 9.28125 47.703125 
L 2.6875 47.703125 
L 2.6875 54.6875 
L 9.28125 54.6875 
L 9.28125 70.21875 
z
" id="DejaVuSans-116"/>
       <path d="M 9.421875 54.6875 
L 18.40625 54.6875 
L 18.40625 0 
L 9.421875 0 
z
M 9.421875 75.984375 
L 18.40625 75.984375 
L 18.40625 64.59375 
L 9.421875 64.59375 
z
" id="DejaVuSans-105"/>
       <path d="M 44.28125 53.078125 
L 44.28125 44.578125 
Q 40.484375 46.53125 36.375 47.5 
Q 32.28125 48.484375 27.875 48.484375 
Q 21.1875 48.484375 17.84375 46.4375 
Q 14.5 44.390625 14.5 40.28125 
Q 14.5 37.15625 16.890625 35.375 
Q 19.28125 33.59375 26.515625 31.984375 
L 29.59375 31.296875 
Q 39.15625 29.25 43.1875 25.515625 
Q 47.21875 21.78125 47.21875 15.09375 
Q 47.21875 7.46875 41.1875 3.015625 
Q 35.15625 -1.421875 24.609375 -1.421875 
Q 20.21875 -1.421875 15.453125 -0.5625 
Q 10.6875 0.296875 5.421875 2 
L 5.421875 11.28125 
Q 10.40625 8.6875 15.234375 7.390625 
Q 20.0625 6.109375 24.8125 6.109375 
Q 31.15625 6.109375 34.5625 8.28125 
Q 37.984375 10.453125 37.984375 14.40625 
Q 37.984375 18.0625 35.515625 20.015625 
Q 33.0625 21.96875 24.703125 23.78125 
L 21.578125 24.515625 
Q 13.234375 26.265625 9.515625 29.90625 
Q 5.8125 33.546875 5.8125 39.890625 
Q 5.8125 47.609375 11.28125 51.796875 
Q 16.75 56 26.8125 56 
Q 31.78125 56 36.171875 55.265625 
Q 40.578125 54.546875 44.28125 53.078125 
z
" id="DejaVuSans-115"/>
      </defs>
      <use xlink:href="#DejaVuSans-78"/>
      <use x="74.804688" xlink:href="#DejaVuSans-117"/>
      <use x="138.183594" xlink:href="#DejaVuSans-109"/>
      <use x="235.595703" xlink:href="#DejaVuSans-98"/>
      <use x="299.072266" xlink:href="#DejaVuSans-101"/>
      <use x="360.595703" xlink:href="#DejaVuSans-114"/>
      <use x="401.708984" xlink:href="#DejaVuSans-32"/>
      <use x="433.496094" xlink:href="#DejaVuSans-111"/>
      <use x="494.677734" xlink:href="#DejaVuSans-102"/>
      <use x="529.882812" xlink:href="#DejaVuSans-32"/>
      <use x="561.669922" xlink:href="#DejaVuSans-97"/>
      <use x="622.949219" xlink:href="#DejaVuSans-114"/>
      <use x="664.0625" xlink:href="#DejaVuSans-116"/>
      <use x="703.271484" xlink:href="#DejaVuSans-105"/>
      <use x="731.054688" xlink:href="#DejaVuSans-115"/>
      <use x="783.154297" xlink:href="#DejaVuSans-116"/>
      <use x="822.363281" xlink:href="#DejaVuSans-115"/>
     </g>
    </g>
   </g>
   <g id="line2d_14">
    <path clip-path="url(#p87e3e4b62b)" d="M 69.218182 196.162925 
L 69.310413 235.551587 
L 69.402645 134.162254 
L 69.494876 201.268863 
L 69.679339 51.008413 
L 69.863802 241.022234 
L 69.956033 138.903482 
L 70.048264 154.586005 
L 70.140496 222.057323 
L 70.232727 215.127836 
L 70.324959 238.469265 
L 70.41719 206.3748 
L 70.509421 44.443636 
L 70.693884 232.998618 
L 70.970579 161.150782 
L 71.06281 184.492211 
L 71.155041 104.256048 
L 71.247273 196.892345 
L 71.339504 106.809017 
L 71.431736 119.938571 
L 71.523967 149.115357 
L 71.616198 240.657524 
L 71.800661 200.539443 
L 71.985124 240.657524 
L 72.261818 93.314753 
L 72.35405 227.163261 
L 72.446281 89.302945 
L 72.538512 147.291808 
L 72.630744 131.973995 
L 72.722975 206.73951 
L 72.999669 98.055981 
L 73.184132 152.033036 
L 73.276364 121.76212 
L 73.368595 213.668997 
L 73.460826 213.304287 
L 73.553058 234.822167 
L 73.737521 183.033371 
L 74.014215 240.657524 
L 74.198678 175.739175 
L 74.290909 228.98681 
L 74.38314 187.045179 
L 74.475372 203.092412 
L 74.567603 189.598148 
L 74.752066 237.375136 
L 74.936529 184.492211 
L 75.02876 166.986139 
L 75.120992 219.869064 
L 75.213223 204.915961 
L 75.305455 241.386944 
L 75.67438 192.880537 
L 75.766612 215.127836 
L 75.858843 213.668997 
L 75.951074 211.480738 
L 76.043306 168.809688 
L 76.227769 216.586676 
L 76.32 169.539108 
L 76.504463 227.52797 
L 76.596694 180.480403 
L 76.688926 215.857256 
L 76.873388 183.762791 
L 77.057851 237.739846 
L 77.150083 189.962858 
L 77.242314 200.904153 
L 77.334545 192.151117 
L 77.426777 215.492546 
L 77.519008 213.304287 
L 77.703471 241.022234 
L 77.795702 218.774935 
L 77.980165 234.822167 
L 78.164628 144.374129 
L 78.349091 229.716229 
L 78.533554 156.774264 
L 78.625785 218.774935 
L 78.718017 145.832969 
L 78.810248 173.186206 
L 78.994711 133.797544 
L 79.179174 232.633908 
L 79.455868 162.609621 
L 79.548099 166.986139 
L 79.640331 152.397746 
L 79.824793 220.598484 
L 79.917025 223.151453 
L 80.101488 240.292814 
L 80.193719 240.292814 
L 80.28595 234.092747 
L 80.562645 82.373459 
L 80.654876 100.97366 
L 80.747107 91.491204 
L 80.839339 230.810359 
L 80.93157 216.586676 
L 81.023802 150.209487 
L 81.300496 222.422033 
L 81.392727 95.503012 
L 81.484959 231.539779 
L 81.57719 229.35152 
L 81.669421 241.022234 
L 81.761653 236.645716 
L 81.853884 224.245582 
L 81.946116 227.163261 
L 82.038347 217.680805 
L 82.22281 239.198685 
L 82.315041 225.704421 
L 82.407273 235.186877 
L 82.591736 138.538772 
L 82.683967 223.880872 
L 82.776198 178.656853 
L 82.86843 231.175069 
L 82.960661 217.316095 
L 83.052893 230.810359 
L 83.145124 209.657189 
L 83.329587 236.645716 
L 83.421818 160.421362 
L 83.51405 233.728038 
L 83.606281 221.327903 
L 83.698512 238.469265 
L 83.882975 227.163261 
L 83.975207 239.198685 
L 84.159669 222.786743 
L 84.344132 240.657524 
L 84.528595 185.95105 
L 84.713058 206.010091 
L 84.805289 191.056988 
L 84.989752 224.610292 
L 85.081983 237.739846 
L 85.266446 202.362992 
L 85.358678 231.539779 
L 85.450909 231.175069 
L 85.635372 239.928105 
L 85.727603 148.385938 
L 85.912066 219.504354 
L 86.004298 168.809688 
L 86.096529 187.774599 
L 86.18876 233.728038 
L 86.280992 230.080939 
L 86.373223 135.256384 
L 86.465455 219.139644 
L 86.557686 128.691607 
L 86.742149 210.021899 
L 86.83438 163.70375 
L 86.926612 218.045515 
L 87.018843 175.009755 
L 87.111074 189.233438 
L 87.203306 227.52797 
L 87.387769 158.962523 
L 87.572231 240.292814 
L 87.664463 242.116364 
L 87.756694 231.175069 
L 87.848926 232.633908 
L 87.941157 175.009755 
L 88.12562 223.516162 
L 88.217851 191.056988 
L 88.310083 215.127836 
L 88.402314 186.31576 
L 88.586777 234.822167 
L 88.679008 238.833975 
L 88.863471 236.645716 
L 88.955702 241.386944 
L 89.047934 232.633908 
L 89.232397 240.292814 
L 89.324628 226.798551 
L 89.601322 239.198685 
L 89.785785 205.645381 
L 89.878017 210.021899 
L 89.970248 198.351184 
L 90.062479 240.657524 
L 90.154711 222.786743 
L 90.246942 169.174398 
L 90.431405 224.245582 
L 90.523636 212.939577 
L 90.615868 239.563395 
L 90.708099 223.880872 
L 90.800331 228.98681 
L 90.984793 216.586676 
L 91.169256 241.751654 
L 91.261488 230.445649 
L 91.353719 238.469265 
L 91.44595 238.104556 
L 91.538182 239.198685 
L 91.630413 202.362992 
L 91.722645 237.010426 
L 91.907107 215.492546 
L 91.999339 233.728038 
L 92.183802 203.457122 
L 92.368264 235.916297 
L 92.460496 238.833975 
L 92.644959 232.998618 
L 92.73719 232.633908 
L 92.921653 241.751654 
L 93.013884 241.386944 
L 93.106116 232.998618 
L 93.198347 201.998282 
L 93.38281 240.657524 
L 93.659504 224.975002 
L 93.751736 201.268863 
L 93.843967 227.52797 
L 93.936198 222.057323 
L 94.02843 238.104556 
L 94.120661 230.080939 
L 94.212893 230.810359 
L 94.305124 235.551587 
L 94.581818 190.692278 
L 94.67405 241.386944 
L 94.766281 235.916297 
L 94.858512 213.304287 
L 94.950744 222.422033 
L 95.042975 151.303616 
L 95.227438 208.19835 
L 95.319669 130.515156 
L 95.411901 225.704421 
L 95.504132 204.551251 
L 95.596364 132.338705 
L 95.688595 206.73951 
L 95.780826 201.633573 
L 95.873058 233.728038 
L 95.965289 212.574867 
L 96.149752 241.386944 
L 96.241983 237.739846 
L 96.334215 224.610292 
L 96.426446 240.657524 
L 96.518678 239.563395 
L 96.610909 238.104556 
L 96.70314 127.232768 
L 96.795372 187.409889 
L 96.887603 160.056652 
L 97.072066 226.433841 
L 97.164298 158.597813 
L 97.34876 227.163261 
L 97.440992 187.409889 
L 97.625455 241.751654 
L 97.717686 237.375136 
L 97.809917 242.116364 
L 97.902149 241.386944 
L 97.99438 241.022234 
L 98.086612 210.386609 
L 98.178843 219.504354 
L 98.271074 200.904153 
L 98.363306 239.563395 
L 98.455537 228.6221 
L 98.547769 240.657524 
L 98.64 231.904488 
L 98.732231 242.116364 
L 98.824463 207.83364 
L 98.916694 229.716229 
L 99.008926 218.774935 
L 99.101157 229.716229 
L 99.193388 176.103885 
L 99.28562 233.363328 
L 99.377851 226.069131 
L 99.470083 224.610292 
L 99.562314 235.916297 
L 99.654545 234.457457 
L 99.746777 236.281006 
L 99.93124 230.080939 
L 100.207934 241.386944 
L 100.300165 238.104556 
L 100.392397 229.35152 
L 100.57686 173.915626 
L 100.761322 234.457457 
L 100.853554 241.751654 
L 100.945785 225.704421 
L 101.038017 240.657524 
L 101.130248 232.269198 
L 101.222479 172.821496 
L 101.314711 199.810023 
L 101.499174 174.280335 
L 101.683636 235.916297 
L 101.775868 241.751654 
L 101.868099 232.269198 
L 101.960331 235.186877 
L 102.052562 230.810359 
L 102.144793 215.492546 
L 102.329256 237.739846 
L 102.421488 197.621765 
L 102.513719 202.362992 
L 102.60595 241.386944 
L 102.790413 216.221966 
L 102.882645 236.281006 
L 102.974876 231.539779 
L 103.067107 234.457457 
L 103.159339 234.092747 
L 103.25157 220.963194 
L 103.343802 240.292814 
L 103.436033 239.928105 
L 103.528264 236.645716 
L 103.620496 241.022234 
L 103.712727 235.551587 
L 103.804959 239.928105 
L 103.989421 237.375136 
L 104.081653 227.163261 
L 104.173884 241.751654 
L 104.266116 239.563395 
L 104.358347 223.151453 
L 104.450579 236.281006 
L 104.54281 226.798551 
L 104.635041 234.457457 
L 104.727273 216.221966 
L 104.911736 239.928105 
L 105.096198 210.751318 
L 105.18843 210.386609 
L 105.372893 240.292814 
L 105.465124 237.375136 
L 105.557355 225.339712 
L 105.649587 184.85692 
L 105.741818 219.869064 
L 105.83405 208.563059 
L 106.202975 223.151453 
L 106.295207 240.292814 
L 106.387438 228.25739 
L 106.571901 241.751654 
L 106.664132 218.410225 
L 106.756364 238.469265 
L 106.848595 236.281006 
L 106.940826 241.386944 
L 107.033058 239.928105 
L 107.125289 219.504354 
L 107.309752 240.292814 
L 107.494215 152.762456 
L 107.586446 241.751654 
L 107.678678 223.880872 
L 107.770909 239.928105 
L 107.86314 191.786407 
L 107.955372 240.657524 
L 108.047603 201.268863 
L 108.139835 240.657524 
L 108.232066 218.045515 
L 108.324298 238.469265 
L 108.50876 222.422033 
L 108.785455 239.198685 
L 108.877686 167.715559 
L 108.969917 240.657524 
L 109.062149 231.904488 
L 109.15438 231.904488 
L 109.246612 235.186877 
L 109.338843 230.810359 
L 109.431074 204.186541 
L 109.615537 241.751654 
L 109.707769 234.822167 
L 109.8 238.104556 
L 109.892231 224.245582 
L 109.984463 233.363328 
L 110.076694 200.174733 
L 110.168926 237.375136 
L 110.261157 234.092747 
L 110.353388 234.822167 
L 110.44562 241.022234 
L 110.537851 226.069131 
L 110.722314 234.457457 
L 110.906777 179.021563 
L 110.999008 193.609956 
L 111.09124 214.763126 
L 111.183471 193.974666 
L 111.367934 240.657524 
L 111.552397 238.833975 
L 111.644628 227.163261 
L 111.73686 238.833975 
L 111.829091 233.363328 
L 111.921322 210.021899 
L 112.105785 238.833975 
L 112.198017 242.116364 
L 112.290248 237.739846 
L 112.382479 239.198685 
L 112.474711 222.786743 
L 112.659174 241.751654 
L 112.751405 224.245582 
L 112.935868 235.551587 
L 113.120331 242.116364 
L 113.212562 226.433841 
L 113.304793 240.292814 
L 113.397025 231.539779 
L 113.581488 241.386944 
L 113.673719 227.163261 
L 113.76595 230.080939 
L 113.858182 228.25739 
L 113.950413 236.281006 
L 114.042645 195.433506 
L 114.227107 240.657524 
L 114.319339 240.657524 
L 114.41157 239.928105 
L 114.503802 241.751654 
L 114.596033 241.022234 
L 114.688264 235.186877 
L 114.780496 237.739846 
L 114.872727 228.25739 
L 115.05719 240.657524 
L 115.149421 233.728038 
L 115.333884 242.116364 
L 115.426116 238.469265 
L 115.518347 241.022234 
L 115.610579 238.469265 
L 115.70281 241.751654 
L 115.795041 238.469265 
L 115.887273 242.116364 
L 116.071736 235.186877 
L 116.256198 240.657524 
L 116.34843 237.010426 
L 116.440661 241.386944 
L 116.532893 241.022234 
L 116.625124 237.375136 
L 116.809587 218.045515 
L 116.99405 241.022234 
L 117.086281 202.727702 
L 117.270744 241.751654 
L 117.362975 239.928105 
L 117.455207 242.116364 
L 117.547438 241.386944 
L 117.639669 224.975002 
L 117.731901 226.069131 
L 117.824132 230.445649 
L 117.916364 228.6221 
L 118.008595 237.010426 
L 118.100826 235.916297 
L 118.193058 226.069131 
L 118.377521 241.022234 
L 118.469752 226.798551 
L 118.561983 239.563395 
L 118.654215 238.104556 
L 118.746446 239.563395 
L 118.838678 239.198685 
L 118.930909 215.127836 
L 119.02314 241.386944 
L 119.115372 240.657524 
L 119.299835 239.563395 
L 119.392066 234.092747 
L 119.484298 241.386944 
L 119.576529 241.022234 
L 119.760992 237.375136 
L 119.853223 203.092412 
L 119.945455 241.386944 
L 120.037686 232.998618 
L 120.498843 241.751654 
L 120.591074 227.52797 
L 120.775537 238.833975 
L 120.867769 238.469265 
L 120.96 229.35152 
L 121.144463 235.186877 
L 121.236694 236.281006 
L 121.328926 216.586676 
L 121.421157 240.657524 
L 121.513388 216.951385 
L 121.697851 237.010426 
L 121.882314 241.386944 
L 122.066777 236.281006 
L 122.159008 241.751654 
L 122.25124 236.281006 
L 122.343471 237.375136 
L 122.435702 238.469265 
L 122.527934 232.998618 
L 122.712397 241.751654 
L 122.804628 240.657524 
L 122.89686 235.551587 
L 123.081322 241.751654 
L 123.265785 241.022234 
L 123.358017 227.163261 
L 123.542479 239.928105 
L 123.634711 241.751654 
L 123.726942 237.010426 
L 123.819174 238.833975 
L 123.911405 218.045515 
L 124.003636 229.35152 
L 124.095868 209.292479 
L 124.280331 240.657524 
L 124.372562 223.151453 
L 124.649256 234.092747 
L 124.741488 232.998618 
L 124.92595 241.751654 
L 125.018182 239.928105 
L 125.110413 241.386944 
L 125.202645 223.880872 
L 125.294876 239.928105 
L 125.387107 223.880872 
L 125.479339 239.563395 
L 125.57157 204.551251 
L 125.663802 239.928105 
L 125.756033 236.645716 
L 125.848264 240.292814 
L 125.940496 175.009755 
L 126.032727 234.457457 
L 126.124959 227.52797 
L 126.21719 227.52797 
L 126.401653 239.198685 
L 126.493884 242.116364 
L 126.586116 239.928105 
L 126.678347 232.998618 
L 126.86281 241.022234 
L 126.955041 233.728038 
L 127.139504 241.751654 
L 127.231736 228.25739 
L 127.416198 241.022234 
L 127.50843 237.375136 
L 127.600661 239.198685 
L 127.692893 237.739846 
L 127.969587 239.198685 
L 128.061818 240.292814 
L 128.15405 230.445649 
L 128.338512 241.022234 
L 128.430744 230.445649 
L 128.522975 239.563395 
L 128.707438 234.092747 
L 128.799669 228.25739 
L 128.891901 229.716229 
L 128.984132 175.009755 
L 129.168595 239.198685 
L 129.260826 241.751654 
L 129.353058 241.386944 
L 129.445289 235.551587 
L 129.537521 241.022234 
L 129.629752 199.080604 
L 129.721983 241.386944 
L 129.814215 240.657524 
L 129.906446 240.657524 
L 129.998678 241.386944 
L 130.090909 240.292814 
L 130.18314 228.6221 
L 130.275372 240.292814 
L 130.459835 233.363328 
L 130.644298 241.386944 
L 130.736529 240.657524 
L 130.82876 242.116364 
L 131.013223 232.633908 
L 131.105455 239.928105 
L 131.197686 232.998618 
L 131.289917 241.751654 
L 131.382149 237.739846 
L 131.47438 241.751654 
L 131.566612 241.022234 
L 131.658843 237.739846 
L 131.751074 239.928105 
L 131.843306 232.633908 
L 131.935537 233.728038 
L 132.12 237.375136 
L 132.212231 222.057323 
L 132.396694 241.386944 
L 132.581157 239.563395 
L 132.673388 231.175069 
L 132.76562 240.657524 
L 132.950083 223.151453 
L 133.134545 240.657524 
L 133.226777 239.563395 
L 133.319008 238.469265 
L 133.41124 235.551587 
L 133.595702 241.386944 
L 133.780165 241.022234 
L 133.872397 240.657524 
L 133.964628 241.751654 
L 134.05686 239.563395 
L 134.149091 216.586676 
L 134.241322 237.010426 
L 134.333554 235.916297 
L 134.518017 241.386944 
L 134.610248 235.186877 
L 134.702479 242.116364 
L 134.794711 239.928105 
L 134.886942 241.022234 
L 134.979174 239.928105 
L 135.071405 241.751654 
L 135.163636 241.022234 
L 135.255868 227.52797 
L 135.440331 241.022234 
L 135.624793 240.292814 
L 135.809256 241.751654 
L 135.901488 239.928105 
L 136.08595 242.116364 
L 136.178182 240.292814 
L 136.270413 221.327903 
L 136.362645 241.386944 
L 136.454876 241.022234 
L 136.547107 240.657524 
L 136.639339 239.198685 
L 136.73157 242.116364 
L 136.823802 237.010426 
L 136.916033 242.116364 
L 137.008264 241.022234 
L 137.100496 242.116364 
L 137.192727 234.457457 
L 137.284959 236.281006 
L 137.37719 221.692613 
L 137.561653 239.563395 
L 137.653884 239.198685 
L 137.746116 232.633908 
L 137.838347 242.116364 
L 137.930579 238.833975 
L 138.02281 240.657524 
L 138.115041 236.645716 
L 138.207273 239.928105 
L 138.299504 211.116028 
L 138.483967 242.116364 
L 138.576198 238.104556 
L 138.66843 228.6221 
L 138.852893 238.833975 
L 138.945124 240.292814 
L 139.037355 238.833975 
L 139.129587 239.563395 
L 139.221818 238.104556 
L 139.31405 234.822167 
L 139.406281 239.563395 
L 139.590744 233.728038 
L 139.682975 241.022234 
L 139.775207 235.916297 
L 140.051901 241.751654 
L 140.144132 215.492546 
L 140.236364 241.751654 
L 140.328595 239.928105 
L 140.513058 242.116364 
L 140.697521 241.751654 
L 140.881983 238.833975 
L 141.066446 236.645716 
L 141.158678 235.551587 
L 141.250909 230.810359 
L 141.527603 240.657524 
L 141.619835 238.104556 
L 141.712066 241.751654 
L 141.804298 241.022234 
L 141.896529 240.292814 
L 141.98876 226.069131 
L 142.173223 241.386944 
L 142.265455 241.751654 
L 142.357686 240.292814 
L 142.449917 235.916297 
L 142.542149 239.928105 
L 142.63438 236.281006 
L 142.726612 241.386944 
L 142.818843 229.35152 
L 143.003306 242.116364 
L 143.187769 240.657524 
L 143.28 225.704421 
L 143.372231 242.116364 
L 143.464463 238.833975 
L 143.556694 235.186877 
L 143.741157 242.116364 
L 143.92562 236.645716 
L 144.017851 241.022234 
L 144.110083 232.633908 
L 144.202314 239.563395 
L 144.294545 230.810359 
L 144.386777 237.010426 
L 144.479008 233.363328 
L 144.57124 240.292814 
L 144.663471 228.25739 
L 144.847934 240.292814 
L 144.940165 240.292814 
L 145.032397 242.116364 
L 145.124628 241.022234 
L 145.21686 237.375136 
L 145.309091 241.386944 
L 145.401322 240.292814 
L 145.493554 242.116364 
L 145.585785 214.033707 
L 145.678017 242.116364 
L 145.770248 237.010426 
L 145.954711 241.386944 
L 146.046942 241.022234 
L 146.231405 232.269198 
L 146.323636 242.116364 
L 146.415868 236.645716 
L 146.508099 240.657524 
L 146.600331 236.645716 
L 146.969256 242.116364 
L 147.153719 242.116364 
L 147.338182 239.928105 
L 147.522645 241.751654 
L 147.614876 241.022234 
L 147.707107 241.751654 
L 147.89157 241.022234 
L 147.983802 237.739846 
L 148.076033 228.98681 
L 148.168264 241.751654 
L 148.260496 239.928105 
L 148.352727 239.928105 
L 148.444959 238.469265 
L 148.53719 205.645381 
L 148.629421 242.116364 
L 148.721653 235.916297 
L 148.906116 239.928105 
L 149.090579 241.022234 
L 149.275041 229.716229 
L 149.367273 241.022234 
L 149.459504 239.198685 
L 149.551736 236.645716 
L 149.643967 242.116364 
L 149.736198 241.751654 
L 149.82843 241.386944 
L 150.012893 242.116364 
L 150.105124 241.751654 
L 150.197355 242.116364 
L 150.381818 237.739846 
L 150.658512 241.386944 
L 150.750744 241.386944 
L 150.842975 242.116364 
L 150.935207 240.292814 
L 151.027438 241.022234 
L 151.119669 220.598484 
L 151.211901 242.116364 
L 151.304132 239.563395 
L 151.396364 239.198685 
L 151.580826 241.751654 
L 151.673058 239.198685 
L 151.765289 240.657524 
L 151.857521 223.151453 
L 152.041983 242.116364 
L 152.134215 241.022234 
L 152.226446 233.728038 
L 152.318678 234.092747 
L 152.410909 240.657524 
L 152.50314 238.833975 
L 152.687603 242.116364 
L 152.779835 239.928105 
L 152.872066 241.386944 
L 152.964298 240.292814 
L 153.14876 242.116364 
L 153.333223 234.092747 
L 153.517686 242.116364 
L 153.609917 242.116364 
L 153.702149 241.022234 
L 153.79438 238.469265 
L 153.886612 228.25739 
L 153.978843 242.116364 
L 154.163306 238.469265 
L 154.255537 238.469265 
L 154.347769 237.375136 
L 154.44 241.751654 
L 154.624463 239.563395 
L 154.808926 240.657524 
L 154.993388 234.457457 
L 155.08562 239.928105 
L 155.177851 219.504354 
L 155.362314 238.833975 
L 155.454545 242.116364 
L 155.546777 239.563395 
L 155.639008 226.798551 
L 155.823471 238.833975 
L 156.007934 227.163261 
L 156.100165 229.716229 
L 156.284628 238.469265 
L 156.37686 237.375136 
L 156.469091 241.022234 
L 156.561322 236.645716 
L 156.653554 242.116364 
L 156.745785 241.386944 
L 156.838017 241.022234 
L 157.022479 242.116364 
L 157.114711 242.116364 
L 157.391405 240.657524 
L 157.483636 237.375136 
L 157.575868 239.928105 
L 157.668099 237.739846 
L 157.760331 241.022234 
L 157.944793 235.551587 
L 158.037025 234.822167 
L 158.221488 242.116364 
L 158.313719 242.116364 
L 158.40595 240.292814 
L 158.498182 242.116364 
L 158.590413 229.35152 
L 158.682645 241.751654 
L 158.774876 241.386944 
L 158.867107 236.645716 
L 158.959339 241.751654 
L 159.143802 227.52797 
L 159.328264 242.116364 
L 159.420496 240.657524 
L 159.604959 241.022234 
L 159.789421 231.539779 
L 159.973884 241.386944 
L 160.066116 239.198685 
L 160.250579 242.116364 
L 160.435041 241.386944 
L 160.527273 242.116364 
L 160.711736 239.198685 
L 160.803967 242.116364 
L 160.896198 239.563395 
L 160.98843 241.022234 
L 161.080661 237.375136 
L 161.265124 239.563395 
L 161.357355 233.728038 
L 161.541818 242.116364 
L 161.63405 242.116364 
L 161.726281 240.292814 
L 161.818512 235.916297 
L 161.910744 241.022234 
L 162.002975 232.633908 
L 162.095207 241.386944 
L 162.187438 212.210158 
L 162.279669 241.751654 
L 162.371901 237.739846 
L 162.464132 241.751654 
L 162.556364 211.480738 
L 162.740826 240.657524 
L 162.833058 241.386944 
L 163.017521 235.551587 
L 163.201983 241.751654 
L 163.294215 241.751654 
L 163.386446 242.116364 
L 163.570909 241.386944 
L 163.66314 241.751654 
L 163.755372 239.563395 
L 163.847603 227.52797 
L 164.032066 241.751654 
L 164.124298 232.998618 
L 164.30876 242.116364 
L 164.400992 242.116364 
L 164.585455 241.022234 
L 164.862149 242.116364 
L 164.95438 241.022234 
L 165.046612 241.751654 
L 165.138843 240.657524 
L 165.231074 238.104556 
L 165.323306 241.386944 
L 165.415537 237.739846 
L 165.507769 241.751654 
L 165.6 241.022234 
L 165.692231 239.928105 
L 165.784463 241.022234 
L 165.876694 227.89268 
L 166.061157 241.386944 
L 166.24562 241.751654 
L 166.430083 238.104556 
L 166.522314 242.116364 
L 166.706777 240.657524 
L 166.89124 242.116364 
L 166.983471 241.751654 
L 167.167934 242.116364 
L 167.260165 230.080939 
L 167.352397 240.657524 
L 167.444628 239.928105 
L 167.53686 234.822167 
L 167.721322 242.116364 
L 167.813554 236.645716 
L 167.905785 242.116364 
L 167.998017 237.375136 
L 168.182479 241.386944 
L 168.274711 241.022234 
L 168.459174 241.751654 
L 168.551405 242.116364 
L 168.643636 238.833975 
L 168.828099 242.116364 
L 168.920331 242.116364 
L 169.012562 240.292814 
L 169.104793 241.751654 
L 169.197025 238.833975 
L 169.381488 240.292814 
L 169.473719 242.116364 
L 169.56595 239.563395 
L 169.658182 240.657524 
L 169.750413 224.610292 
L 169.842645 241.751654 
L 169.934876 241.022234 
L 170.027107 240.657524 
L 170.21157 232.269198 
L 170.303802 100.24424 
L 170.488264 238.104556 
L 170.580496 145.832969 
L 170.764959 239.928105 
L 170.85719 231.175069 
L 170.949421 233.728038 
L 171.041653 211.116028 
L 171.226116 224.245582 
L 171.318347 183.762791 
L 171.410579 240.292814 
L 171.50281 220.963194 
L 171.595041 224.610292 
L 171.687273 232.633908 
L 171.779504 156.774264 
L 171.963967 237.739846 
L 172.056198 234.092747 
L 172.240661 237.739846 
L 172.425124 232.633908 
L 172.517355 191.421697 
L 172.609587 240.292814 
L 172.701818 230.445649 
L 172.886281 240.292814 
L 172.978512 226.433841 
L 173.070744 235.186877 
L 173.255207 144.374129 
L 173.347438 232.633908 
L 173.439669 226.069131 
L 173.531901 237.375136 
L 173.624132 226.069131 
L 173.716364 237.739846 
L 173.900826 191.786407 
L 173.993058 239.198685 
L 174.085289 224.610292 
L 174.177521 237.375136 
L 174.269752 236.281006 
L 174.361983 236.281006 
L 174.454215 190.692278 
L 174.546446 239.198685 
L 174.638678 238.833975 
L 174.730909 239.563395 
L 174.82314 225.704421 
L 174.915372 241.022234 
L 175.007603 240.657524 
L 175.099835 233.363328 
L 175.192066 170.268527 
L 175.376529 234.457457 
L 175.46876 216.951385 
L 175.560992 238.104556 
L 175.653223 185.95105 
L 175.745455 192.151117 
L 175.837686 241.386944 
L 175.929917 240.292814 
L 176.11438 241.022234 
L 176.206612 206.3748 
L 176.391074 236.645716 
L 176.483306 231.904488 
L 176.667769 233.728038 
L 176.76 241.022234 
L 176.852231 239.563395 
L 176.944463 233.728038 
L 177.036694 238.833975 
L 177.221157 199.445314 
L 177.40562 226.798551 
L 177.497851 222.422033 
L 177.590083 239.928105 
L 177.682314 209.657189 
L 177.866777 235.916297 
L 177.959008 218.774935 
L 178.143471 239.928105 
L 178.235702 236.645716 
L 178.327934 205.645381 
L 178.512397 239.928105 
L 178.789091 234.822167 
L 178.881322 238.104556 
L 178.973554 235.551587 
L 179.065785 219.504354 
L 179.250248 241.022234 
L 179.342479 236.645716 
L 179.434711 241.022234 
L 179.526942 217.680805 
L 179.711405 239.928105 
L 179.803636 240.657524 
L 179.895868 238.469265 
L 179.988099 221.692613 
L 180.172562 236.645716 
L 180.264793 229.716229 
L 180.449256 241.022234 
L 180.541488 228.25739 
L 180.633719 240.292814 
L 180.72595 197.621765 
L 180.910413 240.657524 
L 181.002645 237.739846 
L 181.094876 204.551251 
L 181.187107 242.116364 
L 181.279339 241.386944 
L 181.463802 226.433841 
L 181.556033 238.104556 
L 181.648264 219.139644 
L 181.740496 239.928105 
L 181.832727 230.810359 
L 182.01719 241.751654 
L 182.201653 221.327903 
L 182.293884 235.916297 
L 182.386116 224.975002 
L 182.478347 240.292814 
L 182.570579 223.880872 
L 182.66281 239.928105 
L 182.755041 201.998282 
L 182.847273 204.186541 
L 183.031736 241.386944 
L 183.123967 222.786743 
L 183.216198 238.469265 
L 183.30843 219.504354 
L 183.400661 240.657524 
L 183.492893 238.469265 
L 183.585124 239.928105 
L 183.677355 231.539779 
L 183.769587 241.751654 
L 183.861818 240.657524 
L 183.95405 234.822167 
L 184.046281 239.198685 
L 184.138512 238.469265 
L 184.230744 235.916297 
L 184.507438 239.563395 
L 184.599669 237.375136 
L 184.691901 238.104556 
L 184.784132 205.645381 
L 184.968595 240.292814 
L 185.060826 240.292814 
L 185.153058 234.092747 
L 185.245289 237.375136 
L 185.337521 236.281006 
L 185.429752 229.716229 
L 185.521983 241.751654 
L 185.614215 239.563395 
L 185.798678 240.657524 
L 185.890909 239.198685 
L 185.98314 240.292814 
L 186.259835 235.551587 
L 186.352066 227.89268 
L 186.444298 229.716229 
L 186.536529 239.928105 
L 186.62876 214.033707 
L 186.720992 241.751654 
L 186.813223 239.198685 
L 186.905455 219.504354 
L 186.997686 231.175069 
L 187.089917 226.069131 
L 187.27438 241.022234 
L 187.366612 234.092747 
L 187.458843 218.045515 
L 187.643306 232.269198 
L 187.735537 231.539779 
L 187.92 241.751654 
L 188.012231 239.928105 
L 188.104463 207.83364 
L 188.196694 238.104556 
L 188.288926 236.645716 
L 188.381157 237.739846 
L 188.473388 242.116364 
L 188.56562 239.563395 
L 188.657851 240.657524 
L 188.750083 239.928105 
L 188.842314 236.281006 
L 189.026777 241.751654 
L 189.21124 232.998618 
L 189.303471 241.751654 
L 189.395702 232.633908 
L 189.580165 241.386944 
L 189.672397 228.6221 
L 189.85686 242.116364 
L 189.949091 231.904488 
L 190.133554 241.751654 
L 190.225785 240.292814 
L 190.318017 227.89268 
L 190.410248 241.022234 
L 190.502479 236.281006 
L 190.594711 239.928105 
L 190.686942 234.822167 
L 190.779174 239.198685 
L 190.871405 234.092747 
L 190.963636 239.928105 
L 191.055868 229.35152 
L 191.240331 241.022234 
L 191.424793 238.469265 
L 191.517025 241.022234 
L 191.609256 235.551587 
L 191.701488 219.504354 
L 191.793719 240.657524 
L 191.88595 239.198685 
L 192.070413 241.022234 
L 192.162645 241.386944 
L 192.254876 235.551587 
L 192.439339 242.116364 
L 192.623802 225.704421 
L 192.716033 206.73951 
L 192.808264 226.433841 
L 192.900496 218.410225 
L 193.084959 236.645716 
L 193.269421 227.163261 
L 193.453884 240.657524 
L 193.546116 238.104556 
L 193.730579 241.022234 
L 193.82281 208.927769 
L 193.915041 241.386944 
L 194.007273 230.080939 
L 194.191736 238.833975 
L 194.283967 223.516162 
L 194.376198 238.104556 
L 194.46843 237.739846 
L 194.652893 242.116364 
L 194.745124 226.433841 
L 194.837355 241.386944 
L 194.929587 235.551587 
L 195.11405 240.657524 
L 195.298512 224.975002 
L 195.482975 239.928105 
L 195.575207 238.104556 
L 195.667438 231.175069 
L 195.759669 241.022234 
L 195.851901 239.928105 
L 195.944132 241.022234 
L 196.036364 240.657524 
L 196.220826 241.386944 
L 196.313058 239.928105 
L 196.405289 241.386944 
L 196.497521 241.022234 
L 196.589752 222.422033 
L 196.774215 241.022234 
L 196.866446 240.657524 
L 196.958678 241.751654 
L 197.050909 237.739846 
L 197.14314 238.833975 
L 197.235372 235.186877 
L 197.327603 241.386944 
L 197.419835 239.928105 
L 197.512066 234.457457 
L 197.604298 235.916297 
L 197.696529 230.810359 
L 197.78876 235.551587 
L 197.880992 234.457457 
L 197.973223 240.657524 
L 198.065455 234.822167 
L 198.157686 239.563395 
L 198.249917 216.951385 
L 198.43438 241.751654 
L 198.526612 214.763126 
L 198.618843 241.751654 
L 198.711074 233.363328 
L 198.803306 239.198685 
L 198.895537 231.904488 
L 199.08 239.928105 
L 199.172231 237.375136 
L 199.264463 216.951385 
L 199.356694 237.375136 
L 199.541157 226.798551 
L 199.72562 242.116364 
L 199.910083 220.233774 
L 200.002314 241.022234 
L 200.094545 232.269198 
L 200.186777 237.739846 
L 200.279008 231.539779 
L 200.37124 240.657524 
L 200.463471 226.798551 
L 200.647934 241.022234 
L 200.740165 240.657524 
L 200.832397 238.104556 
L 200.924628 239.198685 
L 201.01686 242.116364 
L 201.109091 215.857256 
L 201.201322 241.386944 
L 201.293554 239.928105 
L 201.385785 240.657524 
L 201.478017 234.457457 
L 201.570248 242.116364 
L 201.662479 228.6221 
L 201.846942 241.386944 
L 202.031405 236.645716 
L 202.123636 241.751654 
L 202.215868 238.469265 
L 202.400331 239.563395 
L 202.492562 239.198685 
L 202.584793 229.35152 
L 202.769256 240.292814 
L 202.861488 225.704421 
L 202.953719 241.022234 
L 203.04595 237.739846 
L 203.138182 241.386944 
L 203.230413 240.657524 
L 203.322645 241.751654 
L 203.414876 239.198685 
L 203.507107 239.928105 
L 203.69157 223.880872 
L 203.783802 241.386944 
L 203.876033 240.292814 
L 204.060496 237.375136 
L 204.152727 239.198685 
L 204.244959 238.104556 
L 204.33719 240.657524 
L 204.429421 236.281006 
L 204.521653 241.751654 
L 204.613884 235.916297 
L 204.706116 241.386944 
L 204.798347 222.057323 
L 204.890579 241.386944 
L 204.98281 232.633908 
L 205.167273 241.751654 
L 205.351736 229.716229 
L 205.62843 240.657524 
L 205.720661 229.35152 
L 205.905124 241.751654 
L 206.181818 237.739846 
L 206.366281 241.022234 
L 206.550744 240.292814 
L 206.642975 231.904488 
L 206.827438 241.022234 
L 206.919669 239.563395 
L 207.011901 230.810359 
L 207.196364 241.022234 
L 207.288595 233.728038 
L 207.380826 241.022234 
L 207.473058 235.186877 
L 207.657521 240.657524 
L 207.749752 240.292814 
L 207.841983 241.386944 
L 207.934215 240.292814 
L 208.026446 241.751654 
L 208.210909 238.104556 
L 208.395372 205.645381 
L 208.487603 206.3748 
L 208.579835 204.915961 
L 208.672066 216.221966 
L 208.764298 202.362992 
L 209.040992 242.116364 
L 209.133223 238.833975 
L 209.409917 241.751654 
L 209.502149 240.292814 
L 209.686612 233.728038 
L 209.778843 241.022234 
L 209.871074 235.551587 
L 209.963306 241.386944 
L 210.055537 238.104556 
L 210.24 242.116364 
L 210.332231 237.010426 
L 210.424463 240.657524 
L 210.516694 240.292814 
L 210.608926 242.116364 
L 210.701157 241.386944 
L 210.793388 230.445649 
L 210.977851 239.198685 
L 211.070083 241.386944 
L 211.162314 234.092747 
L 211.254545 240.657524 
L 211.346777 227.89268 
L 211.53124 240.657524 
L 211.623471 241.386944 
L 211.715702 234.092747 
L 211.807934 241.022234 
L 211.900165 239.928105 
L 211.992397 238.833975 
L 212.17686 241.751654 
L 212.269091 240.292814 
L 212.361322 233.363328 
L 212.638017 241.751654 
L 212.730248 241.022234 
L 212.822479 241.751654 
L 212.914711 238.833975 
L 213.099174 241.022234 
L 213.191405 232.633908 
L 213.375868 240.292814 
L 213.468099 232.998618 
L 213.560331 237.739846 
L 213.929256 228.25739 
L 214.113719 242.116364 
L 214.20595 239.198685 
L 214.298182 239.563395 
L 214.482645 241.022234 
L 214.574876 226.069131 
L 214.667107 241.751654 
L 214.759339 231.904488 
L 214.943802 242.116364 
L 215.036033 230.810359 
L 215.128264 233.728038 
L 215.220496 241.751654 
L 215.312727 234.457457 
L 215.49719 240.657524 
L 215.681653 242.116364 
L 215.773884 241.022234 
L 215.866116 241.751654 
L 215.958347 241.022234 
L 216.050579 231.175069 
L 216.235041 242.116364 
L 216.327273 227.163261 
L 216.419504 240.292814 
L 216.511736 235.916297 
L 216.696198 242.116364 
L 216.78843 240.657524 
L 216.880661 239.198685 
L 217.065124 241.751654 
L 217.249587 239.198685 
L 217.341818 239.563395 
L 217.526281 241.751654 
L 217.618512 228.25739 
L 217.802975 241.022234 
L 217.987438 241.386944 
L 218.079669 227.163261 
L 218.171901 238.104556 
L 218.264132 236.645716 
L 218.356364 236.645716 
L 218.448595 238.104556 
L 218.540826 228.6221 
L 218.817521 241.751654 
L 218.909752 239.198685 
L 219.001983 242.116364 
L 219.094215 239.198685 
L 219.186446 231.904488 
L 219.278678 241.386944 
L 219.370909 237.375136 
L 219.46314 241.751654 
L 219.555372 239.198685 
L 219.739835 241.386944 
L 219.832066 239.563395 
L 219.924298 242.116364 
L 220.016529 241.386944 
L 220.10876 242.116364 
L 220.200992 238.833975 
L 220.385455 242.116364 
L 220.477686 241.022234 
L 220.662149 242.116364 
L 220.75438 240.292814 
L 220.846612 240.657524 
L 220.938843 241.022234 
L 221.031074 240.657524 
L 221.123306 239.198685 
L 221.307769 241.751654 
L 221.4 241.386944 
L 221.492231 239.928105 
L 221.676694 241.751654 
L 221.768926 241.751654 
L 221.861157 240.657524 
L 221.953388 241.751654 
L 222.137851 240.657524 
L 222.230083 241.022234 
L 222.322314 237.739846 
L 222.414545 241.751654 
L 222.69124 239.198685 
L 222.783471 233.728038 
L 222.875702 240.292814 
L 222.967934 238.469265 
L 223.060165 240.292814 
L 223.244628 233.363328 
L 223.33686 234.457457 
L 223.429091 230.445649 
L 223.521322 241.386944 
L 223.613554 238.833975 
L 223.705785 241.751654 
L 223.890248 232.998618 
L 223.982479 238.833975 
L 224.074711 235.551587 
L 224.259174 241.386944 
L 224.351405 241.751654 
L 224.443636 236.281006 
L 224.535868 237.739846 
L 224.628099 237.010426 
L 224.812562 241.386944 
L 224.904793 239.928105 
L 224.997025 240.292814 
L 225.089256 239.563395 
L 225.181488 233.363328 
L 225.273719 234.092747 
L 225.458182 241.022234 
L 225.642645 238.469265 
L 225.734876 238.469265 
L 225.827107 217.680805 
L 226.01157 236.645716 
L 226.196033 241.386944 
L 226.288264 241.386944 
L 226.380496 231.175069 
L 226.472727 241.386944 
L 226.564959 239.928105 
L 226.65719 237.010426 
L 226.749421 237.375136 
L 226.841653 241.386944 
L 226.933884 241.022234 
L 227.026116 242.116364 
L 227.210579 235.186877 
L 227.395041 241.386944 
L 227.487273 237.375136 
L 227.763967 242.116364 
L 227.856198 239.198685 
L 228.040661 241.386944 
L 228.132893 238.833975 
L 228.225124 240.292814 
L 228.317355 239.928105 
L 228.409587 241.751654 
L 228.501818 240.292814 
L 228.59405 241.751654 
L 228.870744 240.292814 
L 229.055207 226.433841 
L 229.239669 241.022234 
L 229.331901 226.798551 
L 229.516364 241.386944 
L 229.608595 239.928105 
L 229.700826 241.751654 
L 229.793058 241.386944 
L 229.977521 241.386944 
L 230.254215 238.104556 
L 230.346446 240.657524 
L 230.438678 236.645716 
L 230.530909 211.845448 
L 230.715372 242.116364 
L 230.807603 237.010426 
L 230.899835 238.104556 
L 230.992066 241.022234 
L 231.084298 239.563395 
L 231.26876 241.751654 
L 231.360992 240.657524 
L 231.453223 232.269198 
L 231.637686 241.751654 
L 231.729917 238.104556 
L 231.91438 241.751654 
L 232.098843 241.022234 
L 232.191074 241.022234 
L 232.467769 237.010426 
L 232.56 237.739846 
L 232.836694 241.751654 
L 233.113388 230.445649 
L 233.297851 242.116364 
L 233.390083 241.751654 
L 233.482314 242.116364 
L 233.666777 239.563395 
L 233.759008 238.833975 
L 233.85124 235.551587 
L 234.035702 239.563395 
L 234.127934 237.010426 
L 234.220165 239.928105 
L 234.312397 239.563395 
L 234.49686 241.386944 
L 234.589091 239.928105 
L 234.773554 241.386944 
L 234.865785 241.751654 
L 235.050248 239.928105 
L 235.142479 241.751654 
L 235.234711 241.022234 
L 235.326942 241.386944 
L 235.419174 241.022234 
L 235.511405 241.751654 
L 235.603636 241.022234 
L 235.788099 236.281006 
L 235.880331 236.645716 
L 235.972562 241.751654 
L 236.064793 241.022234 
L 236.249256 241.751654 
L 236.341488 241.022234 
L 236.52595 242.116364 
L 236.618182 238.104556 
L 236.710413 238.469265 
L 236.802645 241.751654 
L 236.894876 237.375136 
L 236.987107 241.022234 
L 237.17157 239.198685 
L 237.263802 242.116364 
L 237.448264 239.198685 
L 237.540496 242.116364 
L 237.632727 241.022234 
L 237.724959 241.751654 
L 237.909421 241.022234 
L 238.001653 238.833975 
L 238.093884 242.116364 
L 238.186116 241.751654 
L 238.278347 240.657524 
L 238.370579 241.751654 
L 238.46281 238.833975 
L 238.555041 242.116364 
L 238.739504 238.104556 
L 238.923967 242.116364 
L 239.016198 241.386944 
L 239.10843 242.116364 
L 239.292893 241.022234 
L 239.385124 235.916297 
L 239.477355 241.386944 
L 239.569587 241.022234 
L 239.661818 241.386944 
L 239.75405 239.563395 
L 239.846281 240.292814 
L 239.938512 239.563395 
L 240.030744 235.551587 
L 240.215207 241.022234 
L 240.307438 242.116364 
L 240.399669 241.386944 
L 240.584132 241.751654 
L 240.676364 235.916297 
L 240.768595 241.751654 
L 240.860826 241.386944 
L 241.137521 242.116364 
L 241.229752 241.751654 
L 241.321983 234.822167 
L 241.414215 242.116364 
L 241.506446 241.386944 
L 241.690909 241.751654 
L 241.78314 237.010426 
L 242.152066 241.751654 
L 242.244298 237.739846 
L 242.336529 241.751654 
L 242.42876 241.386944 
L 242.520992 240.292814 
L 242.705455 241.386944 
L 242.797686 235.916297 
L 242.889917 242.116364 
L 242.982149 234.457457 
L 243.166612 241.751654 
L 243.258843 241.386944 
L 243.351074 234.457457 
L 243.535537 241.751654 
L 243.72 241.386944 
L 243.812231 241.386944 
L 243.904463 241.022234 
L 243.996694 241.751654 
L 244.088926 240.292814 
L 244.181157 241.386944 
L 244.273388 238.469265 
L 244.457851 241.386944 
L 244.550083 242.116364 
L 244.642314 241.751654 
L 244.734545 237.739846 
L 244.826777 240.657524 
L 244.919008 235.186877 
L 245.195702 239.928105 
L 245.287934 238.104556 
L 245.380165 242.116364 
L 245.65686 238.104556 
L 245.749091 238.469265 
L 245.841322 241.751654 
L 246.118017 237.739846 
L 246.210248 240.292814 
L 246.302479 238.104556 
L 246.394711 239.198685 
L 246.486942 241.751654 
L 246.579174 239.198685 
L 246.763636 241.751654 
L 246.855868 239.928105 
L 246.948099 241.022234 
L 247.040331 239.563395 
L 247.132562 242.116364 
L 247.224793 241.751654 
L 247.317025 242.116364 
L 247.409256 238.833975 
L 247.593719 242.116364 
L 247.68595 241.751654 
L 247.778182 241.386944 
L 247.962645 242.116364 
L 248.054876 242.116364 
L 248.239339 240.292814 
L 248.423802 242.116364 
L 248.516033 241.751654 
L 248.608264 234.822167 
L 248.792727 242.116364 
L 248.97719 241.022234 
L 249.069421 239.928105 
L 249.161653 242.116364 
L 249.253884 241.386944 
L 249.346116 235.186877 
L 249.530579 242.116364 
L 249.715041 241.386944 
L 249.899504 241.386944 
L 249.991736 238.833975 
L 250.176198 241.751654 
L 250.26843 241.751654 
L 250.452893 237.375136 
L 250.637355 239.928105 
L 250.729587 238.833975 
L 250.821818 240.657524 
L 250.91405 240.292814 
L 251.006281 241.386944 
L 251.098512 236.645716 
L 251.282975 242.116364 
L 251.375207 240.292814 
L 251.651901 241.751654 
L 251.744132 242.116364 
L 251.836364 240.657524 
L 251.928595 241.751654 
L 252.113058 237.010426 
L 252.297521 241.751654 
L 252.389752 239.563395 
L 252.481983 242.116364 
L 252.574215 236.645716 
L 252.758678 239.563395 
L 252.850909 234.092747 
L 252.94314 241.751654 
L 253.035372 238.469265 
L 253.127603 242.116364 
L 253.219835 240.657524 
L 253.496529 241.751654 
L 253.680992 237.375136 
L 253.773223 242.116364 
L 253.865455 239.928105 
L 254.049917 242.116364 
L 254.142149 241.386944 
L 254.23438 241.751654 
L 254.326612 239.928105 
L 254.418843 240.292814 
L 254.695537 242.116364 
L 254.787769 242.116364 
L 254.88 240.292814 
L 254.972231 240.657524 
L 255.064463 241.386944 
L 255.156694 236.645716 
L 255.248926 239.198685 
L 255.341157 237.375136 
L 255.52562 241.022234 
L 255.617851 241.022234 
L 255.710083 241.751654 
L 255.802314 241.386944 
L 255.894545 237.010426 
L 256.079008 241.386944 
L 256.17124 241.022234 
L 256.355702 241.751654 
L 256.447934 238.104556 
L 256.632397 241.751654 
L 256.724628 240.657524 
L 256.81686 242.116364 
L 256.909091 238.469265 
L 257.001322 241.751654 
L 257.093554 241.386944 
L 257.185785 242.116364 
L 257.278017 239.928105 
L 257.370248 233.728038 
L 257.554711 241.386944 
L 257.739174 239.563395 
L 257.831405 241.386944 
L 257.923636 240.292814 
L 258.015868 241.751654 
L 258.108099 241.386944 
L 258.200331 242.116364 
L 258.292562 238.833975 
L 258.384793 241.751654 
L 258.569256 238.833975 
L 258.661488 239.198685 
L 258.753719 240.657524 
L 258.84595 239.198685 
L 259.030413 242.116364 
L 259.214876 241.022234 
L 259.307107 241.022234 
L 259.399339 241.751654 
L 259.49157 239.198685 
L 259.676033 241.022234 
L 259.768264 238.104556 
L 259.952727 241.751654 
L 260.044959 241.751654 
L 260.229421 232.998618 
L 260.413884 242.116364 
L 260.506116 241.386944 
L 260.690579 241.751654 
L 260.78281 236.281006 
L 260.875041 236.645716 
L 260.967273 242.116364 
L 261.059504 241.751654 
L 261.151736 237.739846 
L 261.336198 241.751654 
L 261.42843 241.751654 
L 261.520661 241.386944 
L 261.612893 241.751654 
L 261.797355 239.563395 
L 261.981818 242.116364 
L 262.07405 240.292814 
L 262.166281 242.116364 
L 262.350744 240.657524 
L 262.442975 242.116364 
L 262.535207 241.751654 
L 262.627438 242.116364 
L 262.811901 241.022234 
L 262.904132 242.116364 
L 263.088595 240.657524 
L 263.180826 242.116364 
L 263.273058 241.751654 
L 263.365289 239.928105 
L 263.457521 241.751654 
L 263.549752 238.469265 
L 263.734215 241.751654 
L 263.826446 241.751654 
L 264.10314 238.833975 
L 264.195372 241.386944 
L 264.287603 240.657524 
L 264.472066 241.386944 
L 264.564298 240.292814 
L 264.656529 241.386944 
L 264.74876 239.563395 
L 264.933223 242.116364 
L 265.025455 239.198685 
L 265.117686 242.116364 
L 265.209917 239.563395 
L 265.302149 241.022234 
L 265.486612 240.292814 
L 265.671074 242.116364 
L 265.763306 241.022234 
L 265.855537 242.116364 
L 266.04 241.022234 
L 266.132231 242.116364 
L 266.316694 241.022234 
L 266.68562 242.116364 
L 266.777851 242.116364 
L 266.870083 241.022234 
L 267.054545 241.751654 
L 267.146777 239.198685 
L 267.239008 241.386944 
L 267.33124 238.104556 
L 267.515702 241.751654 
L 267.607934 241.751654 
L 267.792397 241.022234 
L 267.884628 241.751654 
L 268.161322 240.657524 
L 268.253554 241.751654 
L 268.345785 235.916297 
L 268.438017 240.292814 
L 268.530248 238.469265 
L 268.622479 241.022234 
L 268.714711 239.928105 
L 268.806942 237.375136 
L 268.899174 241.751654 
L 269.175868 239.198685 
L 269.360331 241.751654 
L 269.544793 241.022234 
L 269.637025 240.657524 
L 269.729256 241.386944 
L 269.821488 241.022234 
L 269.913719 242.116364 
L 270.00595 239.928105 
L 270.098182 240.292814 
L 270.190413 239.928105 
L 270.374876 241.386944 
L 270.467107 241.386944 
L 270.559339 241.751654 
L 270.743802 239.563395 
L 270.928264 242.116364 
L 271.112727 238.469265 
L 271.204959 242.116364 
L 271.29719 241.751654 
L 271.481653 238.104556 
L 271.666116 241.386944 
L 271.758347 240.657524 
L 271.94281 242.116364 
L 272.035041 240.292814 
L 272.127273 241.751654 
L 272.403967 241.022234 
L 272.496198 239.198685 
L 272.680661 242.116364 
L 272.865124 238.833975 
L 272.957355 239.563395 
L 273.141818 242.116364 
L 273.418512 238.469265 
L 273.602975 241.386944 
L 273.695207 239.198685 
L 273.787438 239.563395 
L 273.879669 239.928105 
L 274.064132 241.386944 
L 274.156364 238.833975 
L 274.340826 242.116364 
L 274.525289 241.386944 
L 274.617521 241.022234 
L 274.709752 239.928105 
L 274.801983 241.751654 
L 274.894215 239.563395 
L 274.986446 240.657524 
L 275.170909 238.469265 
L 275.26314 242.116364 
L 275.355372 239.928105 
L 275.539835 242.116364 
L 275.816529 236.281006 
L 276.000992 241.751654 
L 276.093223 241.386944 
L 276.185455 239.563395 
L 276.277686 242.116364 
L 276.462149 241.022234 
L 276.55438 242.116364 
L 276.738843 241.751654 
L 276.831074 240.292814 
L 276.923306 241.022234 
L 277.107769 239.563395 
L 277.2 240.657524 
L 277.292231 239.563395 
L 277.384463 242.116364 
L 277.568926 241.022234 
L 277.661157 240.292814 
L 277.937851 242.116364 
L 278.030083 241.386944 
L 278.214545 242.116364 
L 278.306777 241.022234 
L 278.49124 241.751654 
L 278.583471 241.386944 
L 278.675702 242.116364 
L 278.767934 241.751654 
L 278.860165 242.116364 
L 279.044628 235.186877 
L 279.13686 241.751654 
L 279.229091 241.386944 
L 279.413554 241.751654 
L 279.505785 241.751654 
L 279.598017 242.116364 
L 279.782479 241.022234 
L 279.874711 242.116364 
L 279.966942 240.292814 
L 280.151405 241.751654 
L 280.243636 239.928105 
L 280.428099 241.751654 
L 280.520331 238.469265 
L 280.704793 241.751654 
L 280.797025 241.386944 
L 280.889256 241.751654 
L 280.981488 241.022234 
L 281.16595 242.116364 
L 281.350413 241.386944 
L 281.442645 238.833975 
L 281.627107 242.116364 
L 281.719339 241.022234 
L 281.903802 241.751654 
L 281.996033 241.751654 
L 282.088264 242.116364 
L 282.180496 241.022234 
L 282.45719 241.751654 
L 282.549421 241.751654 
L 282.641653 240.292814 
L 282.733884 242.116364 
L 282.826116 241.751654 
L 282.918347 242.116364 
L 283.010579 241.386944 
L 283.10281 242.116364 
L 283.195041 241.386944 
L 283.379504 242.116364 
L 283.471736 239.563395 
L 283.563967 241.751654 
L 283.656198 241.386944 
L 283.74843 242.116364 
L 283.840661 241.751654 
L 283.932893 240.292814 
L 284.025124 242.116364 
L 284.117355 241.386944 
L 284.209587 241.751654 
L 284.301818 241.022234 
L 284.39405 242.116364 
L 284.578512 241.022234 
L 284.670744 241.751654 
L 284.762975 241.386944 
L 284.947438 242.116364 
L 285.593058 242.116364 
L 285.685289 241.022234 
L 285.869752 242.116364 
L 285.961983 242.116364 
L 286.146446 241.386944 
L 286.42314 242.116364 
L 286.607603 241.386944 
L 286.792066 242.116364 
L 286.884298 239.198685 
L 286.976529 241.751654 
L 287.06876 240.657524 
L 287.253223 242.116364 
L 287.345455 241.022234 
L 287.529917 242.116364 
L 287.622149 242.116364 
L 287.806612 241.022234 
L 287.898843 240.657524 
L 288.175537 242.116364 
L 288.267769 241.386944 
L 288.36 242.116364 
L 288.452231 241.386944 
L 288.544463 242.116364 
L 288.636694 241.751654 
L 288.728926 242.116364 
L 288.913388 241.751654 
L 289.097851 242.116364 
L 289.282314 242.116364 
L 289.374545 241.751654 
L 289.466777 240.292814 
L 289.559008 242.116364 
L 289.65124 241.751654 
L 289.835702 242.116364 
L 290.020165 242.116364 
L 290.112397 240.657524 
L 290.29686 242.116364 
L 290.573554 242.116364 
L 290.665785 241.022234 
L 290.850248 242.116364 
L 290.942479 241.751654 
L 291.034711 240.292814 
L 291.126942 242.116364 
L 291.219174 241.751654 
L 291.311405 242.116364 
L 291.495868 241.022234 
L 291.680331 241.751654 
L 291.772562 242.116364 
L 291.864793 240.292814 
L 292.049256 242.116364 
L 292.141488 241.022234 
L 292.32595 242.116364 
L 292.418182 242.116364 
L 292.510413 241.386944 
L 292.602645 242.116364 
L 292.694876 241.022234 
L 292.879339 242.116364 
L 293.063802 242.116364 
L 293.156033 241.751654 
L 293.248264 240.657524 
L 293.340496 242.116364 
L 293.432727 240.657524 
L 293.524959 241.386944 
L 293.61719 240.292814 
L 293.709421 241.386944 
L 293.801653 241.022234 
L 293.986116 242.116364 
L 294.078347 239.198685 
L 294.170579 242.116364 
L 294.26281 239.198685 
L 294.355041 241.751654 
L 294.447273 239.928105 
L 294.631736 242.116364 
L 294.723967 242.116364 
L 294.90843 241.751654 
L 295.000661 238.833975 
L 295.092893 239.198685 
L 295.185124 241.022234 
L 295.277355 238.833975 
L 295.369587 241.751654 
L 295.461818 240.292814 
L 295.646281 241.751654 
L 295.830744 240.657524 
L 295.922975 242.116364 
L 296.015207 240.292814 
L 296.199669 242.116364 
L 296.291901 242.116364 
L 296.384132 240.657524 
L 296.476364 242.116364 
L 296.568595 241.386944 
L 296.660826 241.751654 
L 296.753058 241.022234 
L 296.845289 241.386944 
L 296.937521 241.022234 
L 297.121983 241.751654 
L 297.214215 242.116364 
L 297.306446 241.386944 
L 297.398678 242.116364 
L 297.490909 240.657524 
L 297.58314 241.751654 
L 297.675372 239.563395 
L 297.859835 241.022234 
L 298.044298 242.116364 
L 298.22876 240.657524 
L 298.413223 241.751654 
L 298.505455 241.386944 
L 298.597686 241.751654 
L 298.689917 241.386944 
L 298.966612 242.116364 
L 299.058843 242.116364 
L 299.151074 241.751654 
L 299.335537 242.116364 
L 299.612231 241.022234 
L 299.796694 242.116364 
L 300.073388 240.657524 
L 300.257851 241.386944 
L 300.350083 241.386944 
L 300.534545 242.116364 
L 300.626777 241.751654 
L 300.719008 239.563395 
L 300.995702 242.116364 
L 301.180165 242.116364 
L 301.272397 239.198685 
L 301.45686 241.386944 
L 301.549091 239.928105 
L 301.641322 242.116364 
L 301.733554 240.657524 
L 302.010248 242.116364 
L 302.194711 242.116364 
L 302.286942 241.386944 
L 302.379174 242.116364 
L 302.471405 241.386944 
L 302.563636 242.116364 
L 302.655868 239.928105 
L 302.840331 242.116364 
L 302.932562 242.116364 
L 303.117025 241.386944 
L 303.209256 242.116364 
L 303.301488 240.657524 
L 303.393719 242.116364 
L 303.48595 241.022234 
L 303.670413 242.116364 
L 303.762645 241.751654 
L 303.854876 242.116364 
L 303.947107 238.833975 
L 304.13157 242.116364 
L 304.223802 239.928105 
L 304.408264 241.386944 
L 304.500496 241.751654 
L 304.592727 238.469265 
L 304.684959 242.116364 
L 304.77719 241.751654 
L 304.961653 242.116364 
L 305.238347 242.116364 
L 305.330579 240.657524 
L 305.42281 242.116364 
L 305.607273 241.386944 
L 305.699504 241.386944 
L 305.791736 242.116364 
L 305.883967 241.386944 
L 306.160661 242.116364 
L 306.252893 242.116364 
L 306.345124 240.292814 
L 306.437355 242.116364 
L 306.529587 241.751654 
L 306.621818 242.116364 
L 306.71405 241.751654 
L 306.806281 242.116364 
L 306.898512 239.563395 
L 306.990744 241.751654 
L 307.082975 240.657524 
L 307.267438 242.116364 
L 307.359669 242.116364 
L 307.451901 238.104556 
L 307.636364 242.116364 
L 307.820826 240.657524 
L 307.913058 241.386944 
L 308.097521 240.292814 
L 308.189752 241.751654 
L 308.281983 241.386944 
L 308.466446 241.751654 
L 308.74314 241.022234 
L 308.927603 242.116364 
L 309.019835 241.386944 
L 309.112066 241.751654 
L 309.204298 239.563395 
L 309.296529 241.386944 
L 309.38876 241.022234 
L 309.573223 239.928105 
L 309.757686 242.116364 
L 309.942149 242.116364 
L 310.126612 241.386944 
L 310.311074 242.116364 
L 310.403306 241.751654 
L 310.495537 242.116364 
L 310.587769 241.751654 
L 310.68 240.657524 
L 310.772231 241.022234 
L 310.864463 242.116364 
L 311.048926 241.386944 
L 311.141157 241.386944 
L 311.417851 242.116364 
L 311.510083 241.386944 
L 311.694545 242.116364 
L 311.786777 241.386944 
L 311.879008 241.751654 
L 311.97124 241.386944 
L 312.063471 242.116364 
L 312.155702 241.386944 
L 312.247934 242.116364 
L 312.340165 241.751654 
L 312.524628 242.116364 
L 312.61686 241.751654 
L 312.709091 240.657524 
L 312.893554 242.116364 
L 313.078017 242.116364 
L 313.262479 241.022234 
L 313.354711 241.022234 
L 313.631405 241.751654 
L 313.723636 241.386944 
L 313.908099 242.116364 
L 314.000331 242.116364 
L 314.184793 241.751654 
L 314.277025 242.116364 
L 314.553719 241.386944 
L 314.64595 241.386944 
L 314.738182 241.022234 
L 314.922645 242.116364 
L 315.014876 242.116364 
L 315.199339 241.022234 
L 315.29157 242.116364 
L 315.476033 239.563395 
L 315.660496 241.751654 
L 315.752727 241.386944 
L 315.93719 242.116364 
L 316.029421 242.116364 
L 316.213884 241.386944 
L 316.306116 242.116364 
L 316.398347 241.386944 
L 316.58281 242.116364 
L 316.675041 240.292814 
L 316.767273 242.116364 
L 316.859504 241.022234 
L 316.951736 242.116364 
L 317.043967 241.386944 
L 317.136198 242.116364 
L 317.22843 241.022234 
L 317.320661 242.116364 
L 317.412893 241.751654 
L 317.505124 242.116364 
L 317.597355 241.386944 
L 317.781818 242.116364 
L 317.966281 242.116364 
L 318.058512 241.751654 
L 318.242975 242.116364 
L 318.335207 242.116364 
L 318.519669 241.386944 
L 318.704132 242.116364 
L 318.888595 241.751654 
L 318.980826 242.116364 
L 319.073058 241.751654 
L 319.165289 240.292814 
L 319.349752 242.116364 
L 319.441983 241.386944 
L 319.626446 242.116364 
L 319.810909 240.292814 
L 319.995372 242.116364 
L 320.087603 242.116364 
L 320.179835 238.469265 
L 320.364298 242.116364 
L 320.456529 242.116364 
L 320.640992 241.751654 
L 320.825455 242.116364 
L 320.917686 242.116364 
L 321.009917 241.751654 
L 321.102149 239.928105 
L 321.19438 242.116364 
L 321.378843 241.386944 
L 321.471074 242.116364 
L 321.563306 241.751654 
L 321.747769 242.116364 
L 321.84 242.116364 
L 322.024463 240.292814 
L 322.116694 242.116364 
L 322.208926 241.751654 
L 322.393388 242.116364 
L 322.670083 242.116364 
L 322.762314 239.563395 
L 322.946777 242.116364 
L 323.13124 242.116364 
L 323.223471 241.751654 
L 323.407934 242.116364 
L 323.500165 242.116364 
L 323.592397 241.751654 
L 323.684628 242.116364 
L 323.77686 241.386944 
L 323.961322 242.116364 
L 324.053554 242.116364 
L 324.145785 241.751654 
L 324.238017 240.657524 
L 324.330248 242.116364 
L 324.422479 241.022234 
L 324.606942 241.751654 
L 324.699174 240.657524 
L 324.791405 226.069131 
L 324.975868 242.116364 
L 325.068099 237.010426 
L 325.252562 242.116364 
L 325.344793 241.022234 
L 325.529256 242.116364 
L 325.621488 241.751654 
L 325.80595 242.116364 
L 325.898182 241.386944 
L 325.990413 241.751654 
L 326.082645 241.386944 
L 326.174876 242.116364 
L 326.359339 240.657524 
L 326.45157 242.116364 
L 326.543802 241.751654 
L 326.636033 242.116364 
L 326.728264 241.751654 
L 326.912727 242.116364 
L 327.09719 242.116364 
L 327.189421 240.657524 
L 327.373884 242.116364 
L 327.466116 242.116364 
L 327.650579 241.751654 
L 327.74281 242.116364 
L 327.835041 241.022234 
L 327.927273 242.116364 
L 328.111736 241.386944 
L 328.296198 242.116364 
L 328.480661 242.116364 
L 328.665124 241.751654 
L 328.849587 241.751654 
L 329.03405 242.116364 
L 329.218512 241.022234 
L 329.310744 242.116364 
L 329.402975 241.022234 
L 329.587438 242.116364 
L 329.679669 241.386944 
L 329.864132 242.116364 
L 330.140826 241.386944 
L 330.325289 242.116364 
L 330.417521 241.751654 
L 330.601983 242.116364 
L 330.786446 241.751654 
L 330.878678 241.751654 
L 330.970909 241.022234 
L 331.339835 242.116364 
L 331.432066 241.386944 
L 331.70876 242.116364 
L 331.893223 240.292814 
L 331.985455 242.116364 
L 332.077686 241.022234 
L 332.262149 242.116364 
L 332.35438 241.751654 
L 332.446612 242.116364 
L 332.538843 241.751654 
L 332.723306 242.116364 
L 332.907769 242.116364 
L 333 241.751654 
L 333.092231 242.116364 
L 333.184463 241.751654 
L 333.368926 242.116364 
L 333.461157 240.657524 
L 333.64562 242.116364 
L 333.737851 241.386944 
L 333.922314 242.116364 
L 334.106777 242.116364 
L 334.199008 241.751654 
L 334.383471 242.116364 
L 334.475702 242.116364 
L 334.660165 241.751654 
L 334.844628 242.116364 
L 334.93686 241.751654 
L 335.029091 242.116364 
L 335.121322 241.022234 
L 335.305785 242.116364 
L 335.398017 241.751654 
L 335.582479 239.563395 
L 335.674711 241.751654 
L 335.766942 241.386944 
L 335.859174 241.022234 
L 335.951405 239.563395 
L 336.043636 242.116364 
L 336.135868 241.022234 
L 336.228099 241.751654 
L 336.320331 240.292814 
L 336.504793 241.386944 
L 336.597025 241.022234 
L 336.689256 242.116364 
L 336.781488 241.751654 
L 336.873719 240.292814 
L 336.96595 242.116364 
L 337.058182 241.751654 
L 337.150413 241.386944 
L 337.334876 242.116364 
L 337.427107 242.116364 
L 337.519339 241.386944 
L 337.703802 242.116364 
L 337.796033 241.386944 
L 337.980496 242.116364 
L 338.072727 241.751654 
L 338.164959 242.116364 
L 338.25719 241.022234 
L 338.349421 242.116364 
L 338.718347 241.022234 
L 338.90281 242.116364 
L 338.995041 241.751654 
L 339.087273 242.116364 
L 339.179504 241.751654 
L 339.271736 242.116364 
L 339.363967 241.751654 
L 339.54843 242.116364 
L 339.917355 242.116364 
L 340.009587 241.751654 
L 340.19405 242.116364 
L 340.378512 241.751654 
L 340.562975 242.116364 
L 340.839669 242.116364 
L 340.931901 240.657524 
L 341.300826 242.116364 
L 341.393058 241.751654 
L 341.485289 242.116364 
L 341.577521 241.386944 
L 341.669752 242.116364 
L 341.761983 241.751654 
L 341.946446 242.116364 
L 342.776529 242.116364 
L 342.960992 241.386944 
L 343.237686 242.116364 
L 343.329917 242.116364 
L 343.422149 241.751654 
L 343.606612 242.116364 
L 343.698843 242.116364 
L 343.975537 240.657524 
L 344.16 242.116364 
L 344.252231 242.116364 
L 344.344463 241.751654 
L 344.436694 240.657524 
L 344.528926 242.116364 
L 344.621157 241.751654 
L 344.80562 242.116364 
L 345.266777 242.116364 
L 345.359008 241.751654 
L 345.45124 239.198685 
L 345.543471 242.116364 
L 345.635702 241.751654 
L 345.820165 242.116364 
L 345.912397 241.751654 
L 346.004628 242.116364 
L 346.09686 241.751654 
L 346.189091 242.116364 
L 346.281322 241.386944 
L 346.373554 242.116364 
L 346.465785 241.386944 
L 346.650248 242.116364 
L 346.742479 241.751654 
L 346.834711 242.116364 
L 346.926942 241.751654 
L 347.111405 242.116364 
L 347.295868 241.751654 
L 347.480331 242.116364 
L 347.572562 241.386944 
L 347.757025 242.116364 
L 347.941488 241.022234 
L 348.12595 242.116364 
L 348.310413 242.116364 
L 348.402645 241.386944 
L 348.494876 242.116364 
L 348.587107 241.751654 
L 348.77157 242.116364 
L 348.863802 241.751654 
L 349.048264 242.116364 
L 349.41719 242.116364 
L 349.601653 241.751654 
L 349.786116 242.116364 
L 349.970579 242.116364 
L 350.155041 241.386944 
L 350.247273 241.751654 
L 350.339504 240.657524 
L 350.523967 242.116364 
L 350.616198 241.751654 
L 350.800661 242.116364 
L 350.892893 241.751654 
L 351.077355 242.116364 
L 351.169587 242.116364 
L 351.261818 241.751654 
L 351.446281 242.116364 
L 351.538512 242.116364 
L 351.630744 241.751654 
L 351.815207 242.116364 
L 351.907438 241.751654 
L 352.091901 242.116364 
L 352.460826 242.116364 
L 352.645289 241.386944 
L 352.737521 242.116364 
L 352.829752 241.386944 
L 353.014215 242.116364 
L 353.106446 241.751654 
L 353.290909 242.116364 
L 353.475372 242.116364 
L 353.567603 241.751654 
L 353.752066 242.116364 
L 353.844298 241.386944 
L 354.120992 242.116364 
L 354.489917 242.116364 
L 354.582149 241.751654 
L 354.766612 242.116364 
L 355.135537 242.116364 
L 355.412231 241.022234 
L 355.596694 242.116364 
L 355.781157 242.116364 
L 355.873388 241.751654 
L 356.057851 242.116364 
L 356.61124 242.116364 
L 356.703471 241.751654 
L 356.887934 242.116364 
L 357.25686 242.116364 
L 357.349091 241.386944 
L 357.441322 242.116364 
L 357.533554 240.292814 
L 357.718017 242.116364 
L 357.902479 242.116364 
L 357.994711 241.751654 
L 358.086942 242.116364 
L 358.179174 240.657524 
L 358.363636 242.116364 
L 358.824793 242.116364 
L 358.917025 241.751654 
L 359.009256 239.928105 
L 359.193719 242.116364 
L 359.28595 242.116364 
L 359.378182 241.751654 
L 359.470413 242.116364 
L 359.562645 241.751654 
L 359.747107 242.116364 
L 359.839339 241.386944 
L 359.93157 242.116364 
L 360.023802 241.751654 
L 360.208264 242.116364 
L 360.669421 242.116364 
L 360.761653 241.751654 
L 360.946116 242.116364 
L 362.329587 242.116364 
L 362.421818 241.751654 
L 362.606281 242.116364 
L 362.698512 241.751654 
L 362.882975 242.116364 
L 363.528595 242.116364 
L 363.620826 241.751654 
L 363.805289 242.116364 
L 364.266446 242.116364 
L 364.358678 241.751654 
L 364.54314 242.116364 
L 364.635372 241.751654 
L 364.819835 242.116364 
L 365.557686 242.116364 
L 365.742149 241.022234 
L 365.83438 242.116364 
L 365.926612 241.386944 
L 366.111074 242.116364 
L 366.48 242.116364 
L 366.572231 241.751654 
L 366.756694 242.116364 
L 366.941157 241.751654 
L 367.033388 241.751654 
L 367.217851 242.116364 
L 368.047934 242.116364 
L 368.140165 241.751654 
L 368.232397 242.116364 
L 368.324628 241.386944 
L 368.509091 242.116364 
L 369.431405 242.116364 
L 369.523636 241.751654 
L 369.708099 242.116364 
L 371.829421 242.116364 
L 371.921653 241.751654 
L 372.106116 242.116364 
L 373.581818 242.116364 
L 373.581818 242.116364 
" style="fill:none;stroke:#1f77b4;stroke-linecap:square;stroke-width:1.5;"/>
   </g>
   <g id="patch_3">
    <path d="M 54 252 
L 54 34.56 
" style="fill:none;stroke:#000000;stroke-linecap:square;stroke-linejoin:miter;stroke-width:0.8;"/>
   </g>
   <g id="patch_4">
    <path d="M 388.8 252 
L 388.8 34.56 
" style="fill:none;stroke:#000000;stroke-linecap:square;stroke-linejoin:miter;stroke-width:0.8;"/>
   </g>
   <g id="patch_5">
    <path d="M 54 252 
L 388.8 252 
" style="fill:none;stroke:#000000;stroke-linecap:square;stroke-linejoin:miter;stroke-width:0.8;"/>
   </g>
   <g id="patch_6">
    <path d="M 54 34.56 
L 388.8 34.56 
" style="fill:none;stroke:#000000;stroke-linecap:square;stroke-linejoin:miter;stroke-width:0.8;"/>
   </g>
   <g id="text_16">
    <!-- Genres histogram -->
    <g style="fill:#ffffff;" transform="translate(167.785313 28.56)scale(0.12 -0.12)">
     <defs>
      <path d="M 54.890625 33.015625 
L 54.890625 0 
L 45.90625 0 
L 45.90625 32.71875 
Q 45.90625 40.484375 42.875 44.328125 
Q 39.84375 48.1875 33.796875 48.1875 
Q 26.515625 48.1875 22.3125 43.546875 
Q 18.109375 38.921875 18.109375 30.90625 
L 18.109375 0 
L 9.078125 0 
L 9.078125 75.984375 
L 18.109375 75.984375 
L 18.109375 46.1875 
Q 21.34375 51.125 25.703125 53.5625 
Q 30.078125 56 35.796875 56 
Q 45.21875 56 50.046875 50.171875 
Q 54.890625 44.34375 54.890625 33.015625 
z
" id="DejaVuSans-104"/>
      <path d="M 45.40625 27.984375 
Q 45.40625 37.75 41.375 43.109375 
Q 37.359375 48.484375 30.078125 48.484375 
Q 22.859375 48.484375 18.828125 43.109375 
Q 14.796875 37.75 14.796875 27.984375 
Q 14.796875 18.265625 18.828125 12.890625 
Q 22.859375 7.515625 30.078125 7.515625 
Q 37.359375 7.515625 41.375 12.890625 
Q 45.40625 18.265625 45.40625 27.984375 
z
M 54.390625 6.78125 
Q 54.390625 -7.171875 48.1875 -13.984375 
Q 42 -20.796875 29.203125 -20.796875 
Q 24.46875 -20.796875 20.265625 -20.09375 
Q 16.0625 -19.390625 12.109375 -17.921875 
L 12.109375 -9.1875 
Q 16.0625 -11.328125 19.921875 -12.34375 
Q 23.78125 -13.375 27.78125 -13.375 
Q 36.625 -13.375 41.015625 -8.765625 
Q 45.40625 -4.15625 45.40625 5.171875 
L 45.40625 9.625 
Q 42.625 4.78125 38.28125 2.390625 
Q 33.9375 0 27.875 0 
Q 17.828125 0 11.671875 7.65625 
Q 5.515625 15.328125 5.515625 27.984375 
Q 5.515625 40.671875 11.671875 48.328125 
Q 17.828125 56 27.875 56 
Q 33.9375 56 38.28125 53.609375 
Q 42.625 51.21875 45.40625 46.390625 
L 45.40625 54.6875 
L 54.390625 54.6875 
z
" id="DejaVuSans-103"/>
     </defs>
     <use xlink:href="#DejaVuSans-71"/>
     <use x="77.490234" xlink:href="#DejaVuSans-101"/>
     <use x="139.013672" xlink:href="#DejaVuSans-110"/>
     <use x="202.392578" xlink:href="#DejaVuSans-114"/>
     <use x="241.255859" xlink:href="#DejaVuSans-101"/>
     <use x="302.779297" xlink:href="#DejaVuSans-115"/>
     <use x="354.878906" xlink:href="#DejaVuSans-32"/>
     <use x="386.666016" xlink:href="#DejaVuSans-104"/>
     <use x="450.044922" xlink:href="#DejaVuSans-105"/>
     <use x="477.828125" xlink:href="#DejaVuSans-115"/>
     <use x="529.927734" xlink:href="#DejaVuSans-116"/>
     <use x="569.136719" xlink:href="#DejaVuSans-111"/>
     <use x="630.318359" xlink:href="#DejaVuSans-103"/>
     <use x="693.794922" xlink:href="#DejaVuSans-114"/>
     <use x="734.908203" xlink:href="#DejaVuSans-97"/>
     <use x="796.1875" xlink:href="#DejaVuSans-109"/>
    </g>
   </g>
  </g>
 </g>
 <defs>
  <clipPath id="p87e3e4b62b">
   <rect height="217.44" width="334.8" x="54" y="34.56"/>
  </clipPath>
 </defs>
</svg>
